<svg width="100" height="28" viewBox="0 0 100 28" fill="none" xmlns="http://www.w3.org/2000/svg">
<path d="M11.4155 27.9999H2.01868C0.903027 27.9999 0 27.1344 0 26.0676V1.93232C0 0.864398 0.904249 0 2.01868 0H11.4155C12.5312 0 13.4342 0.865568 13.4342 1.93232V26.0665C13.4354 27.1344 12.5312 27.9999 11.4155 27.9999Z" fill="#475569"/>
<path d="M26.5731 12.8595H15.8174V2.56395C15.8174 1.14746 17.0173 0 18.4959 0H26.5731C28.0529 0 29.2516 1.14863 29.2516 2.56395V10.2956C29.2528 11.7121 28.0529 12.8595 26.5731 12.8595Z" fill="#475569"/>
<path d="M27.0863 27.9994H17.9839C16.7876 27.9994 15.8174 27.0706 15.8174 25.9255V15.1387H27.0863C28.2826 15.1387 29.2528 16.0674 29.2528 17.2125V25.9255C29.2528 27.0706 28.2826 27.9994 27.0863 27.9994Z" fill="#475569"/>
<path d="M38.4033 3.19648H40.9169V17.9743H38.4033V3.19648ZM45.6923 10.1947C46.0137 10.2345 46.3558 10.3351 46.7187 10.4953C47.0817 10.6556 47.4202 10.8837 47.7342 11.1772C48.0482 11.4708 48.3097 11.8288 48.5199 12.2499C48.7289 12.6709 48.834 13.1552 48.834 13.7038C48.834 14.3728 48.7289 14.9471 48.5199 15.4279C48.311 15.9086 48.0482 16.3075 47.7342 16.621C47.4202 16.9356 47.078 17.1824 46.7078 17.3626C46.3375 17.5427 45.9819 17.6807 45.6398 17.7743C45.2976 17.8679 44.9933 17.924 44.7282 17.9451C44.463 17.9649 44.2883 17.9755 44.204 17.9755H41.7735V16.2104H44.0585C44.7991 16.2104 45.3783 15.9835 45.7974 15.5285C46.2165 15.0746 46.4255 14.4652 46.4255 13.7038C46.4255 12.9821 46.2092 12.3738 45.7754 11.8791C45.3428 11.3843 44.7074 11.1375 43.8691 11.1375H41.7747V9.51279H42.7804C43.0871 9.51279 43.4011 9.50577 43.7225 9.4929C44.0439 9.48004 44.3433 9.40635 44.6231 9.27183C44.9017 9.13849 45.129 8.9104 45.3037 8.5899C45.4785 8.26941 45.5652 7.80738 45.5652 7.20617C45.5652 6.96521 45.5298 6.7149 45.4601 6.45406C45.3905 6.19322 45.2512 5.95577 45.041 5.74172C44.832 5.52767 44.5314 5.35455 44.1404 5.22004C43.7494 5.08669 43.2325 5.02002 42.5898 5.02002H41.7723V3.19531H42.8403C43.4964 3.19531 44.1319 3.269 44.7465 3.41638C45.3612 3.56376 45.9061 3.7977 46.3803 4.11819C46.8544 4.43869 47.232 4.85744 47.5118 5.37093C47.7904 5.88559 47.9309 6.49734 47.9309 7.20617C47.9309 7.62023 47.8613 7.99804 47.722 8.33959C47.5827 8.67997 47.4079 8.97824 47.1978 9.23206C46.9888 9.48588 46.7469 9.69643 46.4756 9.86369C46.2055 10.031 45.944 10.1409 45.6923 10.1947Z" fill="#475569"/>
<path d="M58.7395 3.19531L61.0649 8.95017L59.9334 11.5773L55.8691 3.19531H58.7395ZM64.4998 3.19531H67.3702L62.783 11.9574V17.9731H60.2279V13.0406L64.4998 3.19531Z" fill="#475569"/>
<path d="M74.886 15.2672C75.0815 15.3748 75.3295 15.4777 75.6301 15.5783C75.9307 15.6789 76.2411 15.7725 76.5625 15.8591C76.8839 15.9468 77.2052 16.017 77.5266 16.0696C77.848 16.1234 78.1474 16.1503 78.4272 16.1503H78.4895V18.0546H78.448C78.1131 18.0546 77.7673 18.0382 77.4105 18.0043C77.0549 17.9715 76.6944 17.9142 76.3315 17.8335C75.9686 17.7528 75.6228 17.6428 75.2953 17.5025C74.9666 17.3621 74.6843 17.1913 74.4473 16.9913L74.886 15.2672ZM74.5499 7.08524C74.5499 6.49689 74.655 5.96936 74.864 5.50148C75.0741 5.03361 75.3564 4.62305 75.712 4.26864C76.0676 3.91422 76.4867 3.6335 76.9694 3.42646C77.4508 3.21943 77.9567 3.08257 78.4883 3.0159V5.12134C78.041 5.26872 77.6708 5.52605 77.3787 5.89333C77.0855 6.26061 76.9388 6.6314 76.9388 7.0057C76.9388 7.52738 77.0855 7.94847 77.3787 8.26896C77.672 8.58946 78.0423 8.87018 78.4883 9.11114V11.3967C78.0276 11.1827 77.5669 10.9522 77.1062 10.7054C76.6456 10.4586 76.2264 10.1674 75.8488 9.83283C75.4713 9.49947 75.1609 9.11114 74.9165 8.67017C74.6721 8.22919 74.5499 7.70049 74.5499 7.08524ZM81.7778 5.4816C81.7081 5.4547 81.6238 5.40791 81.5261 5.34124C81.4283 5.27457 81.289 5.2114 81.1069 5.15058C80.9249 5.09092 80.6951 5.04063 80.4153 4.99969C80.1355 4.95992 79.7799 4.9529 79.3473 4.9798V2.95508C79.962 2.96911 80.5864 3.03228 81.2218 3.14574C81.8572 3.2592 82.3704 3.43699 82.7615 3.67677C82.6772 3.85106 82.5794 4.04172 82.4682 4.24875C82.3558 4.45579 82.2519 4.64995 82.1542 4.83009C82.0564 5.01022 81.9721 5.16111 81.9024 5.28158C81.8328 5.40206 81.7912 5.46873 81.7778 5.4816ZM79.3473 9.51234C79.808 9.71352 80.2797 9.92641 80.7611 10.1545C81.2426 10.3814 81.6788 10.6586 82.0698 10.9861C82.4609 11.3137 82.7822 11.7113 83.034 12.1792C83.2857 12.6471 83.4116 13.2284 83.4116 13.9232C83.4116 14.404 83.3175 14.873 83.1281 15.3268C82.9399 15.7819 82.6747 16.1924 82.3326 16.5597C81.9904 16.927 81.5676 17.2381 81.0654 17.4919C80.5632 17.7458 79.9901 17.913 79.3473 17.9937V16.0684C80.4923 15.8017 81.0654 15.073 81.0654 13.8823C81.0654 13.4144 80.9041 13.0272 80.5839 12.7196C80.2626 12.412 79.8508 12.1254 79.3485 11.8576V9.51234H79.3473Z" fill="#475569"/>
<path d="M92.8981 3.19531V16.1484H99.9989V17.9731H90.3418V3.19531H92.8981Z" fill="#475569"/>
<path d="M39.9622 22.4054V25.029H39.4624V22.4054H38.5264V21.9375H40.9019V22.4054H39.9622Z" fill="#475569"/>
<path d="M44.3728 22.4054V23.2405H45.8208V23.7084H44.3728V24.5611H46.0408V25.029H43.873V21.9375H45.9907V22.4054H44.3728Z" fill="#475569"/>
<path d="M51.6278 22.4007L51.3357 22.7808C51.1194 22.5375 50.8103 22.3878 50.5097 22.3878C49.917 22.3878 49.4514 22.8651 49.4514 23.4745C49.4514 24.0839 49.917 24.5658 50.5097 24.5658C50.8066 24.5658 51.1109 24.4243 51.3357 24.1997L51.6326 24.5447C51.332 24.8535 50.9044 25.0524 50.4852 25.0524C49.6176 25.0524 48.9443 24.3681 48.9443 23.4803C48.9443 22.6019 49.6262 21.9258 50.5023 21.9258C50.9202 21.9235 51.3394 22.1048 51.6278 22.4007Z" fill="#475569"/>
<path d="M56.7538 25.029V23.7482H55.1824V25.029H54.6826V21.9375H55.1824V23.2803H56.7538V21.9375H57.2536V25.029H56.7538Z" fill="#475569"/>
<path d="M62.6528 25.029L61.074 22.8113V25.029H60.5742V21.9375H61.0654L62.6528 24.1587V21.9375H63.144V25.029H62.6528Z" fill="#475569"/>
<path d="M69.3655 23.483C69.3655 24.3661 68.68 25.0516 67.7941 25.0516C66.9094 25.0516 66.2227 24.3673 66.2227 23.483C66.2227 22.5952 66.9082 21.9238 67.7941 21.9238C68.6788 21.9238 69.3655 22.5999 69.3655 23.483ZM66.731 23.483C66.731 24.0971 67.2173 24.5825 67.7978 24.5825C68.3782 24.5825 68.8523 24.0971 68.8523 23.483C68.8523 22.8689 68.3782 22.3917 67.7978 22.3917C67.2137 22.3929 66.731 22.8689 66.731 23.483Z" fill="#475569"/>
<path d="M74.2252 24.5564V25.029H72.4424V21.9375H72.9422V24.5564H74.2252Z" fill="#475569"/>
<path d="M80.14 23.483C80.14 24.3661 79.4544 25.0516 78.5685 25.0516C77.6838 25.0516 76.9971 24.3673 76.9971 23.483C76.9971 22.5952 77.6826 21.9238 78.5685 21.9238C79.4532 21.9238 80.14 22.5999 80.14 23.483ZM77.5054 23.483C77.5054 24.0971 77.9917 24.5825 78.5722 24.5825C79.1526 24.5825 79.6267 24.0971 79.6267 23.483C79.6267 22.8689 79.1526 22.3917 78.5722 22.3917C77.9881 22.3929 77.5054 22.8689 77.5054 23.483Z" fill="#475569"/>
<path d="M85.5607 23.5099V24.6492C85.26 24.8878 84.8153 25.0516 84.4096 25.0516C83.5334 25.0516 82.8516 24.3673 82.8516 23.483C82.8516 22.5999 83.542 21.9238 84.4389 21.9238C84.8629 21.9238 85.2857 22.0923 85.5778 22.3566L85.2943 22.7414C85.0658 22.5204 84.748 22.3882 84.4389 22.3882C83.8328 22.3882 83.3587 22.8701 83.3587 23.483C83.3587 24.1018 83.8377 24.5825 84.4426 24.5825C84.6625 24.5825 84.913 24.503 85.1244 24.3708V23.5099H85.5607Z" fill="#475569"/>
<path d="M88.8115 25.029V21.9375H89.3113V25.029H88.8115Z" fill="#475569"/>
<path d="M93.1287 22.4054V23.2405H94.5767V23.7084H93.1287V24.5611H94.7967V25.029H92.6289V21.9375H94.7466V22.4054H93.1287Z" fill="#475569"/>
<path d="M99.9611 22.2338L99.7534 22.6935C99.432 22.49 99.1094 22.4069 98.8858 22.4069C98.5937 22.4069 98.4031 22.5216 98.4031 22.7298C98.4031 23.4058 100.004 23.0432 99.999 24.1568C99.999 24.7089 99.5334 25.0493 98.8809 25.0493C98.4153 25.0493 97.9742 24.8504 97.6699 24.5592L97.8862 24.1088C98.1905 24.4001 98.5717 24.5592 98.8894 24.5592C99.2365 24.5592 99.4442 24.4223 99.4442 24.1837C99.4442 23.4947 97.8434 23.8784 97.8434 22.7789C97.8434 22.249 98.2797 21.918 98.9237 21.918C99.3098 21.9157 99.6862 22.0432 99.9611 22.2338Z" fill="#475569"/>
</svg>
