<svg width="100" height="28" viewBox="0 0 100 28" fill="none" xmlns="http://www.w3.org/2000/svg">
<path d="M44.1396 17.9912H71.0604L72.1666 15.9462H65.9637C64.6006 15.8083 63.5437 14.7376 63.5437 13.4417C63.5437 12.0493 64.7635 10.9555 66.2698 10.9188C68.0725 10.8774 69.5393 11.8838 70.1813 12.4215L70.8332 12.0493C70.201 10.2708 68.3984 8.98869 66.2698 8.98869C63.6128 8.98869 61.4645 10.9785 61.4645 13.4371C61.4645 14.3654 61.7756 15.2293 62.2991 15.9416H59.2026V0C59.2026 0 58.61 0.0367635 57.9531 0.974234C57.2963 1.90711 56.7876 2.63319 55.9875 3.03299C55.9875 3.03299 57.0938 3.91072 57.0938 5.60644C57.0938 7.19187 57.0938 14.9306 57.0938 15.9508H54.901V8.00527C54.901 8.00527 54.3084 8.04203 53.6515 8.9795C52.9947 9.91238 52.486 10.6385 51.6859 11.0383C51.6859 11.0383 52.7922 11.916 52.7922 13.6117C52.7922 14.3654 52.7922 15.2247 52.7922 15.9508H49.4685V8.00527C49.4685 8.00527 48.8758 8.04203 48.219 8.9795C47.5621 9.91697 47.0534 10.6385 46.2534 11.0383C46.2534 11.0383 47.3596 11.916 47.3596 13.6117C47.3596 14.3654 47.3596 15.2247 47.3596 15.9508H44.1446V15.8359V8.00527C44.1446 8.00527 43.5519 8.04203 42.8951 8.9795C42.2382 9.91697 41.7295 10.6385 40.9295 11.0383C40.9295 11.0383 42.0357 11.916 42.0357 13.6117C42.0357 14.324 42.0357 15.1328 42.0357 15.8359C42.0357 16.8009 42.0357 17.5592 42.0357 17.5592V18.3772C42.0357 18.6943 41.7592 18.947 41.4233 18.947H38.2675C38.2675 18.947 38.2083 18.947 38.1095 18.947C37.5514 18.947 35.5759 18.947 34.0252 18.947C32.2028 18.947 31.2595 17.9176 31.2595 17.9176C30.8299 18.6621 30.0496 19.1354 29.047 19.7466C28.0444 20.3578 28 20.9093 28 20.9093H38.1045H38.2626H41.5468C42.9741 20.9093 44.1297 19.8339 44.1297 18.5059V17.9912H44.1396Z" fill="#475569"/>
<path d="M46.8266 18.9473C46.2339 18.9473 45.7549 19.393 45.7549 19.9444C45.7549 20.4957 46.2339 20.9414 46.8266 20.9414C47.4192 20.9414 47.8983 20.4957 47.8983 19.9444C47.8983 19.393 47.4192 18.9473 46.8266 18.9473Z" fill="#475569"/>
<path d="M36.643 14.9766C37.2356 14.9766 37.7147 14.5309 37.7147 13.9795C37.7147 13.4281 37.2356 12.9824 36.643 12.9824C36.0503 12.9824 35.5713 13.4281 35.5713 13.9795C35.5713 14.5309 36.0503 14.9766 36.643 14.9766Z" fill="#475569"/>
<path d="M48.3926 19.9444C48.3926 20.4957 48.8716 20.9414 49.4643 20.9414C50.0569 20.9414 50.536 20.4957 50.536 19.9444C50.536 19.393 50.0569 18.9473 49.4643 18.9473C48.8716 18.9473 48.3926 19.393 48.3926 19.9444Z" fill="#475569"/>
<path d="M52.2338 18.9473C51.6412 18.9473 51.1621 19.393 51.1621 19.9444C51.1621 20.4957 51.6412 20.9414 52.2338 20.9414C52.8264 20.9414 53.3055 20.4957 53.3055 19.9444C53.3055 19.393 52.8264 18.9473 52.2338 18.9473Z" fill="#475569"/>
<path d="M55.9432 19.9444C55.9432 19.393 55.4641 18.9473 54.8715 18.9473C54.2789 18.9473 53.7998 19.393 53.7998 19.9444C53.7998 20.4957 54.2789 20.9414 54.8715 20.9414C55.4641 20.9414 55.9432 20.4957 55.9432 19.9444Z" fill="#475569"/>
<path d="M28.701 23.252H28.0244V27.999H28.701V23.252Z" fill="#475569"/>
<path d="M32.6678 23.252H31.9912V27.999H34.9445V27.4384H32.6678V23.252Z" fill="#475569"/>
<path d="M38.7205 23.252H38.0488V27.999H40.9972V27.4384H38.7205V23.252Z" fill="#475569"/>
<path d="M44.8065 23.252H44.1299V27.999H44.8065V23.252Z" fill="#475569"/>
<path d="M50.4948 24.649C50.2775 24.9615 50.0898 25.2372 49.9367 25.4853C49.7787 25.2188 49.6058 24.9523 49.4181 24.6811L48.4106 23.252H47.5908L49.5564 25.9862V27.999H50.233V25.9862L52.2678 23.252H51.4825L50.4948 24.649Z" fill="#475569"/>
<path d="M55.6024 25.8208H58.1853V25.2648H55.6024V23.8126H58.3779V23.252H54.9258V27.999H58.4964V27.4384H55.6024V25.8208Z" fill="#475569"/>
<path d="M62.3231 25.8208H64.906V25.2648H62.3231V23.8126H65.0986V23.252H61.6465V27.999H65.2172V27.4384H62.3231V25.8208Z" fill="#475569"/>
<path d="M71.6729 23.252V26.9789L68.9961 23.252H68.3047V27.999H68.9517V24.2675L71.6284 27.999H72.3198V23.252H71.6729Z" fill="#475569"/>
</svg>
