<svg width="199" height="210" viewBox="0 0 199 210" fill="none" xmlns="http://www.w3.org/2000/svg">
<path d="M135.955 140.295C133.655 142.429 131.113 144.414 129.035 146.788L98.8867 209.757L121.336 180.796L145.176 131.52C142.115 134.469 139.072 137.419 135.955 140.295Z" fill="#006091"/>
<path d="M118.072 129.945C120.261 126.958 122.358 123.433 124.844 120.353L72.0983 94.6016L22.043 99.6108L109.76 140.056C112.618 136.772 115.512 133.451 118.072 129.945Z" fill="#006091"/>
<path d="M125.604 120.723C122.802 124.229 120.52 128.366 117.83 131.632C115.418 134.582 112.988 137.513 110.502 140.407L150.372 158.793L164.843 139.888L125.604 120.723Z" fill="#00AFE2"/>
<path d="M65.5655 193.801L81.0385 161.501L0 122.707L13.0055 95.527L146.437 16.9375L182.838 34.3771L129.331 146.158L151.391 156.714L136.418 187.994L114.359 177.437L98.8862 209.738L65.5655 193.801ZM125.584 68.4214L123.524 67.4381L52.1518 109.219L95.992 130.202L125.584 68.4214Z" fill="#0076AD"/>
<path d="M151.391 156.733L164.86 139.887L154.285 163.356L135.918 189.014L151.391 156.733Z" fill="#006091"/>
<path d="M146.217 130.575L198.833 15.2324L182.84 34.3603L129.334 146.159C130.818 144.731 145.364 131.428 146.217 130.575Z" fill="#006091"/>
<path d="M13.0059 95.5282L36.7905 74.8233L167.161 0L146.437 16.9387L13.0059 95.5282Z" fill="#009EE7"/>
<path d="M146.436 16.9387L182.855 34.3783L198.829 15.2504L167.159 0L146.436 16.9387Z" fill="#00D2FD"/>
</svg>
