<svg width="173" height="210" viewBox="0 0 173 210" fill="none" xmlns="http://www.w3.org/2000/svg">
<path d="M106.677 115.739C103.944 114.522 101.267 113.193 98.628 111.789C73.3764 126.165 41.1052 144.603 40.4688 145.24C40.4688 145.24 56.5108 170.772 57.5403 171.801C58.1955 172.457 97.9728 143.929 126.575 123.264C119.949 120.718 113.135 118.64 106.677 115.739Z" fill="#008DC4"/>
<path d="M107.091 114.99C113.699 117.91 120.662 120.025 127.382 122.665C143.144 111.284 155.311 102.43 155.311 102.43L128.393 94.8672C128.393 94.8672 115.44 102.224 99.4727 111.302C101.962 112.613 104.508 113.848 107.091 114.99Z" fill="#00AFE2"/>
<path d="M60.668 81.4631L76.5228 124.385L107.502 135.748L68.2678 64.0547L60.668 81.4631Z" fill="#006091"/>
<path d="M109.206 146.307H86.2383L106.679 182.003L137.827 195.125L109.206 146.307Z" fill="#006091"/>
<path d="M137.828 195.125L119.558 163.94L41.37 209.782L26.002 183.557L35.6608 27.6297L70.7959 7.03906L134.028 114.915L155.311 102.449L173 132.642L151.717 145.109L169.987 176.275L137.828 195.125ZM66.9025 74.1271L64.9182 75.2877L59.546 158.567L101.85 133.765L66.9025 74.1271Z" fill="#0076AD"/>
<path d="M0 176.424L25.9817 183.556L41.3685 209.781L13.8893 202.836L0 176.424Z" fill="#008DC4"/>
<path d="M0 176.425L25.9817 183.556L35.6405 27.6291L11.7929 21.9199L0 176.425Z" fill="#00AFE2"/>
<path d="M11.793 21.9197L35.6407 27.6289L70.7758 7.01954L46.6286 0L11.793 21.9197Z" fill="#00D2FD"/>
</svg>
