<svg width="41" height="40" viewBox="0 0 41 40" fill="none" xmlns="http://www.w3.org/2000/svg">
<path opacity="0.2" d="M23 33.75V6.25C23 5.91848 22.8683 5.60054 22.6339 5.36612C22.3995 5.1317 22.0815 5 21.75 5H6.75C6.41848 5 6.10054 5.1317 5.86612 5.36612C5.6317 5.60054 5.5 5.91848 5.5 6.25V33.75" fill="white"/>
<path d="M3 33.75H38" stroke="white" stroke-width="2.55822" stroke-linecap="round" stroke-linejoin="round"/>
<path d="M23 33.75V6.25C23 5.91848 22.8683 5.60054 22.6339 5.36612C22.3995 5.1317 22.0815 5 21.75 5H6.75C6.41848 5 6.10054 5.1317 5.86612 5.36612C5.6317 5.60054 5.5 5.91848 5.5 6.25V33.75" stroke="white" stroke-width="2.55822" stroke-linecap="round" stroke-linejoin="round"/>
<path d="M35.5 33.75V16.25C35.5 15.9185 35.3683 15.6005 35.1339 15.3661C34.8995 15.1317 34.5815 15 34.25 15H23" stroke="white" stroke-width="2.55822" stroke-linecap="round" stroke-linejoin="round"/>
<path d="M10.5 11.25H15.5" stroke="white" stroke-width="1.70548" stroke-linecap="round" stroke-linejoin="round"/>
<path d="M13 21.25H18" stroke="white" stroke-width="1.70548" stroke-linecap="round" stroke-linejoin="round"/>
<path d="M10.5 27.5H15.5" stroke="white" stroke-width="1.70548" stroke-linecap="round" stroke-linejoin="round"/>
<path d="M28 27.5H30.5" stroke="white" stroke-width="1.70548" stroke-linecap="round" stroke-linejoin="round"/>
<path d="M28 21.25H30.5" stroke="white" stroke-width="1.70548" stroke-linecap="round" stroke-linejoin="round"/>
</svg>
