<svg width="142" height="142" viewBox="0 0 142 142" fill="none" xmlns="http://www.w3.org/2000/svg">
<rect width="142" height="142" fill="white"/>
<path d="M12.4216 42.5996H18.4621V79.7437H12.4216V42.5996ZM29.9585 60.1852C30.7379 60.2826 31.5661 60.5262 32.4185 60.9403C33.2954 61.3543 34.0992 61.9145 34.8542 62.6452C35.6093 63.3759 36.2425 64.2771 36.754 65.3488C37.2655 66.3962 37.5091 67.614 37.5091 69.0023C37.5091 70.683 37.2655 72.12 36.754 73.3379C36.2425 74.5557 35.6093 75.5543 34.8542 76.3337C34.0992 77.1132 33.271 77.7464 32.3942 78.2092C31.493 78.672 30.6405 79.013 29.8124 79.2322C28.9842 79.4758 28.2535 79.6219 27.6202 79.6706C26.987 79.7193 26.5729 79.7437 26.3537 79.7437H20.5081V75.3108H26.0127C27.7908 75.3108 29.1791 74.7505 30.2021 73.6058C31.2007 72.461 31.7122 70.9265 31.7122 69.0267C31.7122 67.2 31.2007 65.6898 30.1534 64.4476C29.106 63.2054 27.5715 62.5722 25.5743 62.5722H20.5324V58.4802H22.9438C23.6745 58.4802 24.4295 58.4559 25.2089 58.4315C25.9884 58.4072 26.6947 58.2123 27.3767 57.8713C28.0587 57.5303 28.5945 56.9701 29.0086 56.1663C29.4227 55.3626 29.6419 54.1934 29.6419 52.6833C29.6419 52.0744 29.5688 51.4411 29.3983 50.7835C29.2278 50.1258 28.8868 49.5413 28.3997 49.0054C27.8882 48.4696 27.1818 48.0312 26.2319 47.6902C25.282 47.3492 24.0398 47.1787 22.5053 47.1787H20.5324V42.5996H23.1142C24.6974 42.5996 26.2319 42.7945 27.6933 43.1598C29.1791 43.5252 30.4944 44.1097 31.6148 44.9135C32.7595 45.7173 33.6607 46.7646 34.3427 48.0555C35.0247 49.3464 35.3414 50.8809 35.3414 52.659C35.3414 53.7063 35.1709 54.6562 34.8299 55.5087C34.4889 56.3612 34.0748 57.1163 33.5633 57.7495C33.0518 58.3828 32.4916 58.9187 31.834 59.3327C31.2007 59.7711 30.5674 60.0391 29.9585 60.1852Z" fill="black"/>
<path d="M51.0271 42.5996L56.6292 57.0675L53.9012 63.6682L44.1342 42.5996H51.0271ZM64.8861 42.5996H71.7791L60.7455 64.6181V79.7437H54.6076V67.3461L64.8861 42.5996Z" fill="black"/>
<path d="M79.5741 72.9496C80.0369 73.2176 80.6458 73.4855 81.3522 73.7291C82.0829 73.9726 82.8136 74.2162 83.593 74.4354C84.3724 74.6546 85.1275 74.8251 85.9069 74.9713C86.6863 75.1174 87.3927 75.1661 88.0747 75.1661H88.2208V79.9644H88.1234C87.3196 79.9644 86.4915 79.9157 85.639 79.8426C84.7865 79.7695 83.9096 79.6234 83.0328 79.4042C82.156 79.2093 81.3278 78.9171 80.5484 78.5761C79.769 78.2351 79.087 77.7966 78.5024 77.2851L79.5741 72.9496ZM78.746 52.3682C78.746 50.8824 78.9896 49.5671 79.5011 48.398C80.0126 47.2289 80.6946 46.1815 81.547 45.3047C82.3995 44.4035 83.4225 43.6972 84.5673 43.1857C85.7364 42.6742 86.9542 42.3088 88.2208 42.1627V47.4237C87.1491 47.7891 86.2479 48.4467 85.5416 49.3723C84.8352 50.2978 84.4942 51.2234 84.4942 52.1733C84.4942 53.4886 84.8352 54.5359 85.5416 55.3397C86.2479 56.1435 87.1491 56.8498 88.2208 57.4587V63.2069C87.1004 62.6711 86.0043 62.0865 84.8839 61.4776C83.7635 60.8443 82.7649 60.1136 81.8637 59.2855C80.9625 58.4574 80.2074 57.4831 79.6228 56.3627C79.0626 55.2423 78.746 53.927 78.746 52.3682ZM96.1368 48.3493C95.9663 48.2762 95.7714 48.1545 95.5278 48.0083C95.2843 47.8378 94.9676 47.6917 94.5292 47.5212C94.0908 47.375 93.5306 47.2532 92.8729 47.1315C92.1909 47.034 91.3385 47.0097 90.2911 47.0827V41.9922C91.7769 42.0165 93.2627 42.187 94.7971 42.4793C96.3316 42.7716 97.5494 43.21 98.4993 43.8189C98.3045 44.2574 98.0609 44.7445 97.793 45.256C97.5251 45.7675 97.2815 46.2546 97.0379 46.7174C96.7944 47.1802 96.5995 47.5455 96.429 47.8622C96.2829 48.1301 96.1855 48.3006 96.1368 48.3493ZM90.2911 58.4817C91.4115 58.9932 92.5319 59.5291 93.7011 60.0893C94.8702 60.6495 95.9175 61.3558 96.8431 62.1839C97.793 63.0121 98.5481 64.0107 99.157 65.1798C99.7659 66.349 100.058 67.8104 100.058 69.5641C100.058 70.7819 99.839 71.951 99.3762 73.0958C98.9134 74.2406 98.2802 75.2635 97.452 76.1891C96.6239 77.1146 95.6009 77.8941 94.4074 78.5273C93.1896 79.1606 91.8256 79.5747 90.2668 79.7939V74.9469C93.0191 74.2649 94.4074 72.4382 94.4074 69.4423C94.4074 68.2732 94.0177 67.2989 93.2383 66.5195C92.4589 65.74 91.4846 65.0337 90.2668 64.3517V58.4817H90.2911Z" fill="black"/>
<path d="M112.578 42.5996V75.1646H129.676V79.7437H106.44V42.5996H112.578Z" fill="black"/>
<path d="M51.636 31.4199H12.4216V36.3643H51.636V31.4199Z" fill="#C8C8C8"/>
<path d="M129.676 31.4199H90.4614V36.3643H129.676V31.4199Z" fill="#404040"/>
<path d="M90.4855 31.4199H51.6608V36.3643H90.4855V31.4199Z" fill="#408CD9"/>
<path d="M51.636 85.9277H12.4216V90.8722H51.636V85.9277Z" fill="#C8C8C8"/>
<path d="M129.676 85.9277H90.4614V90.8722H129.676V85.9277Z" fill="#404040"/>
<path d="M90.4855 85.9277H51.6608V90.8722H90.4855V85.9277Z" fill="#408CD9"/>
<path d="M36.3165 110.143V101.496H38.0702V108.657H42.4544V110.143H36.3165Z" fill="black"/>
<path d="M54.1215 101.422H52.3678V110.142H54.1215V101.422Z" fill="black"/>
<path d="M66.9576 110.142L63.84 101.422H65.7398L67.9563 107.876L70.0753 101.422H71.9508L68.8331 110.142H66.9576Z" fill="black"/>
<path d="M81.7908 110.142V101.422H88.2454V102.883H83.5445V104.832H87.9287V106.293H83.5445V108.656H88.4159V110.142H81.7908Z" fill="black"/>
<path d="M105.807 105.78C105.807 108.459 103.639 110.651 100.935 110.651C98.256 110.651 96.0638 108.483 96.0638 105.78C96.0638 103.076 98.2316 100.908 100.935 100.908C103.639 100.908 105.807 103.1 105.807 105.78Z" stroke="#00E574" stroke-width="0.923808" stroke-miterlimit="10"/>
<path d="M103.615 105.784C103.615 107.245 102.421 108.439 100.96 108.439C99.4985 108.439 98.305 107.245 98.305 105.784C98.305 104.322 99.4985 103.129 100.96 103.129C102.421 103.129 103.615 104.322 103.615 105.784Z" fill="#00E574"/>
</svg>
