<svg width="148" height="14" viewBox="0 0 148 14" fill="none" xmlns="http://www.w3.org/2000/svg">
<g opacity="0.4">
<path fill-rule="evenodd" clip-rule="evenodd" d="M24.5 5.5H147.5V4.5H24.5V5.5Z" fill="#003C66"/>
<path d="M6.90912 14C4.0131 14 1.81038 11.6168 0.975934 9.35929C0.527896 8.18709 0.392924 6.91364 0.584893 5.67018C0.776861 4.42672 1.28885 3.25823 2.06809 2.28504C3.52838 0.54949 5.81081 -0.230274 8.48594 0.0589845C11.5538 0.398549 13.6461 2.53655 14.5419 3.44835C14.8425 3.76276 15.1553 4.14636 15.5051 4.56767C17.0328 6.45413 18.7632 8.57327 22.0273 7.08296C22.3685 6.88093 22.6547 6.59422 22.8594 6.24918C23.0642 5.90415 23.181 5.51187 23.1992 5.10845C23.1908 4.64612 23.0297 4.20032 22.7421 3.84397C22.4546 3.48762 22.0576 3.24177 21.6161 3.14652C21.2333 3.11353 20.8497 3.19746 20.5133 3.3877C20.177 3.57795 19.9032 3.86596 19.7265 4.21549C19.6932 4.30378 19.6419 4.38381 19.5761 4.45022C19.5103 4.51663 19.4314 4.56793 19.3448 4.60067C19.2581 4.63342 19.1656 4.64686 19.0735 4.64013C18.9814 4.6334 18.8917 4.60661 18.8105 4.5616C18.7292 4.51659 18.6583 4.45437 18.6024 4.37907C18.5464 4.30376 18.5067 4.21715 18.486 4.12491C18.4653 4.03268 18.4639 3.93693 18.4821 3.84412C18.5003 3.75132 18.5375 3.66357 18.5913 3.58667C18.8943 3.00486 19.3597 2.52889 19.9281 2.21972C20.4965 1.91054 21.1419 1.78221 21.7818 1.85111C22.5302 1.986 23.2098 2.38229 23.7053 2.97266C24.2008 3.56303 24.4817 4.31106 24.5 5.08956C24.4908 5.75965 24.3036 6.41453 23.9588 6.98393C23.614 7.55335 23.1244 8.01582 22.5426 8.32172C18.3949 10.1705 16.0573 7.30302 14.505 5.41027C14.1921 5.02669 13.8914 4.66825 13.6215 4.37899C12.7563 3.49864 10.9586 1.65617 8.34483 1.36691C6.10533 1.12167 4.22169 1.75053 3.04978 3.14023C2.42371 3.93244 2.01426 4.8809 1.86332 5.88856C1.71239 6.89622 1.82539 7.92689 2.19078 8.87508C2.90251 10.8056 4.8107 12.7235 7.0318 12.648C8.22211 12.6103 10.1855 11.9563 10.7132 10.2962C10.8691 9.77939 10.8952 9.23059 10.789 8.70068C10.6828 8.17078 10.4477 7.6769 10.1057 7.26488C9.76363 6.85286 9.32564 6.53597 8.83227 6.34368C8.3389 6.15138 7.80613 6.08987 7.28338 6.16482C7.19544 6.1785 7.10561 6.17243 7.02019 6.14702C6.93477 6.1216 6.8558 6.07749 6.78868 6.01767C6.72156 5.95786 6.66796 5.88376 6.63155 5.80059C6.59513 5.71743 6.57676 5.62715 6.57777 5.536C6.57023 5.44724 6.58029 5.35784 6.60735 5.27317C6.63442 5.18851 6.67795 5.11033 6.73528 5.04335C6.7926 4.97638 6.86257 4.922 6.94095 4.88346C7.01933 4.84492 7.10449 4.82304 7.19133 4.81913C8.02705 4.73122 8.87019 4.88138 9.62798 5.25306C10.3858 5.62474 11.0288 6.20358 11.4863 6.92575C11.8183 7.48584 12.0304 8.11175 12.1087 8.76217C12.1869 9.41259 12.1296 10.0727 11.9403 10.6987C11.2347 12.8555 8.9093 13.8931 7.0318 13.9496L6.90912 14Z" fill="#003C66"/>
</g>
</svg>
