<svg width="148" height="14" viewBox="0 0 148 14" fill="none" xmlns="http://www.w3.org/2000/svg">
<g opacity="0.4">
<path fill-rule="evenodd" clip-rule="evenodd" d="M123.5 5.5H0.5V4.5H123.5V5.5Z" fill="#003C66"/>
<path d="M141.091 14C143.987 14 146.19 11.6168 147.024 9.35929C147.472 8.18709 147.607 6.91364 147.415 5.67018C147.223 4.42672 146.711 3.25823 145.932 2.28504C144.472 0.54949 142.189 -0.230274 139.514 0.0589845C136.446 0.398549 134.354 2.53655 133.458 3.44835C133.157 3.76276 132.845 4.14636 132.495 4.56767C130.967 6.45413 129.237 8.57327 125.973 7.08296C125.631 6.88093 125.345 6.59422 125.141 6.24918C124.936 5.90415 124.819 5.51187 124.801 5.10845C124.809 4.64612 124.97 4.20032 125.258 3.84397C125.545 3.48762 125.942 3.24177 126.384 3.14652C126.767 3.11353 127.15 3.19746 127.487 3.3877C127.823 3.57795 128.097 3.86596 128.274 4.21549C128.307 4.30378 128.358 4.38381 128.424 4.45022C128.49 4.51663 128.569 4.56793 128.655 4.60067C128.742 4.63342 128.834 4.64686 128.926 4.64013C129.019 4.6334 129.108 4.60661 129.19 4.5616C129.271 4.51659 129.342 4.45437 129.398 4.37907C129.454 4.30376 129.493 4.21715 129.514 4.12491C129.535 4.03268 129.536 3.93693 129.518 3.84412C129.5 3.75132 129.463 3.66357 129.409 3.58667C129.106 3.00486 128.64 2.52889 128.072 2.21972C127.504 1.91054 126.858 1.78221 126.218 1.85111C125.47 1.986 124.79 2.38229 124.295 2.97266C123.799 3.56303 123.518 4.31106 123.5 5.08956C123.509 5.75965 123.696 6.41453 124.041 6.98393C124.386 7.55335 124.876 8.01582 125.457 8.32172C129.605 10.1705 131.943 7.30302 133.495 5.41027C133.808 5.02669 134.109 4.66825 134.379 4.37899C135.244 3.49864 137.041 1.65617 139.655 1.36691C141.895 1.12167 143.778 1.75053 144.95 3.14023C145.576 3.93244 145.986 4.8809 146.137 5.88856C146.288 6.89622 146.175 7.92689 145.809 8.87508C145.097 10.8056 143.189 12.7235 140.968 12.648C139.778 12.6103 137.814 11.9563 137.287 10.2962C137.131 9.77939 137.105 9.23059 137.211 8.70068C137.317 8.17078 137.552 7.6769 137.894 7.26488C138.236 6.85286 138.674 6.53597 139.168 6.34368C139.661 6.15138 140.194 6.08987 140.717 6.16482C140.805 6.1785 140.894 6.17243 140.98 6.14702C141.065 6.1216 141.144 6.07749 141.211 6.01767C141.278 5.95786 141.332 5.88376 141.368 5.80059C141.405 5.71743 141.423 5.62715 141.422 5.536C141.43 5.44724 141.42 5.35784 141.393 5.27317C141.366 5.18851 141.322 5.11033 141.265 5.04335C141.207 4.97638 141.137 4.922 141.059 4.88346C140.981 4.84492 140.896 4.82304 140.809 4.81913C139.973 4.73122 139.13 4.88138 138.372 5.25306C137.614 5.62474 136.971 6.20358 136.514 6.92575C136.182 7.48584 135.97 8.11175 135.891 8.76217C135.813 9.41259 135.87 10.0727 136.06 10.6987C136.765 12.8555 139.091 13.8931 140.968 13.9496L141.091 14Z" fill="#003C66"/>
</g>
</svg>
