<svg width="21" height="20" viewBox="0 0 21 20" fill="none" xmlns="http://www.w3.org/2000/svg">
<path d="M15.9163 3.99219C13.7497 7.78385 9.57467 9.95885 5.22467 9.56719L2.58301 9.32552" stroke="#0075C8" stroke-miterlimit="10" stroke-linecap="round" stroke-linejoin="round"/>
<path d="M5.08301 16.1417C7.24967 12.3501 11.4247 10.1751 15.7747 10.5667L18.4163 10.8084" stroke="#0075C8" stroke-miterlimit="10" stroke-linecap="round" stroke-linejoin="round"/>
<path d="M10.5003 18.3327C15.1027 18.3327 18.8337 14.6017 18.8337 9.99935C18.8337 5.39698 15.1027 1.66602 10.5003 1.66602C5.89795 1.66602 2.16699 5.39698 2.16699 9.99935C2.16699 14.6017 5.89795 18.3327 10.5003 18.3327Z" stroke="#0075C8" stroke-miterlimit="10" stroke-linecap="round" stroke-linejoin="round"/>
<path d="M6.8584 2.5L9.5084 5.79167C11.2834 7.99167 12.5417 10.55 13.2084 13.2917L14.2167 17.45" stroke="#0075C8" stroke-miterlimit="10" stroke-linecap="round" stroke-linejoin="round"/>
</svg>
