<svg width="32" height="32" viewBox="0 0 32 32" fill="none" xmlns="http://www.w3.org/2000/svg">
<g clip-path="url(#clip0_1290_86326)">
<path d="M16.025 31.5137C24.7405 31.5137 31.8058 24.4591 31.8058 15.7568C31.8058 7.05457 24.7405 0 16.025 0C7.30947 0 0.244141 7.05457 0.244141 15.7568C0.244141 24.4591 7.30947 31.5137 16.025 31.5137Z" fill="white"/>
<mask id="mask0_1290_86326" style="mask-type:luminance" maskUnits="userSpaceOnUse" x="5" y="5" width="22" height="22">
<path d="M26.2529 13.9081H16.2681V18.0418H22.0154C21.4797 20.668 19.2392 22.1756 16.2681 22.1756C12.7613 22.1756 9.9363 19.3549 9.9363 15.8534C9.9363 12.3519 12.7613 9.5312 16.2681 9.5312C17.778 9.5312 19.1418 10.0662 20.2133 10.9415L23.3305 7.82907C21.431 6.17557 18.9957 5.1543 16.2681 5.1543C10.3259 5.1543 5.55273 9.92025 5.55273 15.8534C5.55273 21.7865 10.3259 26.5525 16.2681 26.5525C21.6258 26.5525 26.4964 22.6619 26.4964 15.8534C26.4964 15.2212 26.399 14.5403 26.2529 13.9081Z" fill="white"/>
</mask>
<g mask="url(#mask0_1290_86326)">
<path d="M4.57812 22.1756V9.53125L12.8582 15.8534L4.57812 22.1756Z" fill="#FBBC05"/>
</g>
<mask id="mask1_1290_86326" style="mask-type:luminance" maskUnits="userSpaceOnUse" x="5" y="5" width="22" height="22">
<path d="M26.2529 13.9081H16.2681V18.0418H22.0154C21.4797 20.668 19.2392 22.1756 16.2681 22.1756C12.7613 22.1756 9.9363 19.3549 9.9363 15.8534C9.9363 12.3519 12.7613 9.5312 16.2681 9.5312C17.778 9.5312 19.1418 10.0662 20.2133 10.9415L23.3305 7.82907C21.431 6.17557 18.9957 5.1543 16.2681 5.1543C10.3259 5.1543 5.55273 9.92025 5.55273 15.8534C5.55273 21.7865 10.3259 26.5525 16.2681 26.5525C21.6258 26.5525 26.4964 22.6619 26.4964 15.8534C26.4964 15.2212 26.399 14.5403 26.2529 13.9081Z" fill="white"/>
</mask>
<g mask="url(#mask1_1290_86326)">
<path d="M4.57812 9.53118L12.8582 15.8534L16.2676 12.8868L27.9571 10.9902V4.18164H4.57812V9.53118Z" fill="#EA4335"/>
</g>
<mask id="mask2_1290_86326" style="mask-type:luminance" maskUnits="userSpaceOnUse" x="5" y="5" width="22" height="22">
<path d="M26.2529 13.9081H16.2681V18.0418H22.0154C21.4797 20.668 19.2392 22.1756 16.2681 22.1756C12.7613 22.1756 9.9363 19.3549 9.9363 15.8534C9.9363 12.3519 12.7613 9.5312 16.2681 9.5312C17.778 9.5312 19.1418 10.0662 20.2133 10.9415L23.3305 7.82907C21.431 6.17557 18.9957 5.1543 16.2681 5.1543C10.3259 5.1543 5.55273 9.92025 5.55273 15.8534C5.55273 21.7865 10.3259 26.5525 16.2681 26.5525C21.6258 26.5525 26.4964 22.6619 26.4964 15.8534C26.4964 15.2212 26.399 14.5403 26.2529 13.9081Z" fill="white"/>
</mask>
<g mask="url(#mask2_1290_86326)">
<path d="M4.57812 22.1756L19.19 10.9902L23.0378 11.4765L27.9571 4.18164V27.5251H4.57812V22.1756Z" fill="#34A853"/>
</g>
<mask id="mask3_1290_86326" style="mask-type:luminance" maskUnits="userSpaceOnUse" x="5" y="5" width="22" height="22">
<path d="M26.2529 13.9081H16.2681V18.0418H22.0154C21.4797 20.668 19.2392 22.1756 16.2681 22.1756C12.7613 22.1756 9.9363 19.3549 9.9363 15.8534C9.9363 12.3519 12.7613 9.5312 16.2681 9.5312C17.778 9.5312 19.1418 10.0662 20.2133 10.9415L23.3305 7.82907C21.431 6.17557 18.9957 5.1543 16.2681 5.1543C10.3259 5.1543 5.55273 9.92025 5.55273 15.8534C5.55273 21.7865 10.3259 26.5525 16.2681 26.5525C21.6258 26.5525 26.4964 22.6619 26.4964 15.8534C26.4964 15.2212 26.399 14.5403 26.2529 13.9081Z" fill="white"/>
</mask>
<g mask="url(#mask3_1290_86326)">
<path d="M27.9573 27.5252L12.8584 15.8534L10.9102 14.3945L27.9573 9.53125V27.5252Z" fill="#4285F4"/>
</g>
</g>
<defs>
<clipPath id="clip0_1290_86326">
<rect width="32" height="32" fill="white"/>
</clipPath>
</defs>
</svg>
