<svg width="97" height="12" viewBox="0 0 97 12" fill="none" xmlns="http://www.w3.org/2000/svg">
<path d="M6.02344 1.34766H10.3438V8.56641C10.3438 9.71745 10.0807 10.5638 9.55469 11.1055C8.97656 11.6888 8.03385 11.9805 6.72656 11.9805H6.02344V1.34766ZM0 8.33203H4.72656V11.9805H4.21875C2.72396 11.9805 1.64844 11.7409 0.992188 11.2617C0.330729 10.7878 0 9.9987 0 8.89453V8.33203Z" fill="#001E33"/>
<path d="M10.7591 8.08984C10.7591 7.51693 10.8346 6.98568 10.9856 6.49609C11.1367 6.0013 11.371 5.56901 11.6888 5.19922C12.3763 4.40755 13.3606 4.01172 14.6419 4.01172H15.2434V11.9805H14.8372C13.5247 11.9805 12.5091 11.6211 11.7903 10.9023C11.1028 10.2148 10.7591 9.27734 10.7591 8.08984Z" fill="#001E33"/>
<path d="M21.5963 0.0273438H25.7994V11.9648H21.5963V0.0273438ZM27.0963 4.01172H27.6978C28.9791 4.01172 29.9582 4.40755 30.6353 5.19922C31.2551 5.92318 31.565 6.8763 31.565 8.05859C31.565 9.26172 31.2239 10.2096 30.5416 10.9023C29.8332 11.6211 28.8202 11.9805 27.5025 11.9805H27.0963V4.01172Z" fill="#001E33"/>
<path d="M44.2706 1.34766H44.8488C46.3956 1.34766 47.5519 1.72005 48.3175 2.46484C49.0206 3.14714 49.3722 4.11328 49.3722 5.36328C49.3722 6.47266 49.0076 7.36589 48.2784 8.04297C47.5024 8.76172 46.4321 9.12109 45.0675 9.12109H44.2706V1.34766ZM38.6613 1.34766H42.8644V11.9648H38.6613V1.34766Z" fill="#001E33"/>
<path d="M55.3578 4.01172H55.9594C57.2406 4.01172 58.225 4.40755 58.9125 5.19922C59.5323 5.91797 59.8422 6.87109 59.8422 8.05859C59.8422 9.26693 59.4984 10.2148 58.8109 10.9023C58.0922 11.6211 57.0766 11.9805 55.7641 11.9805H55.3578V4.01172ZM49.6078 8.08984C49.6078 7.51693 49.6833 6.98568 49.8344 6.49609C49.9854 6.0013 50.2198 5.56901 50.5375 5.19922C51.225 4.40755 52.2094 4.01172 53.4906 4.01172H54.0922V11.9805H53.6859C52.3734 11.9805 51.3578 11.6211 50.6391 10.9023C49.9516 10.2148 49.6078 9.27734 49.6078 8.08984Z" fill="#001E33"/>
<path d="M66.3903 6.23047C66.3903 4.7513 67.346 4.01172 69.2575 4.01172H70.3512V7.99609H66.3903V6.23047ZM60.9216 4.01172H65.2653V11.9805H60.9216V4.01172Z" fill="#001E33"/>
<path d="M75.0556 11.9805C72.4775 11.9805 71.1884 10.8034 71.1884 8.44922V4.05859L74.4931 1.89453H75.665V11.9805H75.0556ZM76.7978 4.01172H80.54V6.62891H76.7978V4.01172ZM76.8056 8.64453H81.1416V9.33203C81.1416 10.2174 80.8707 10.8711 80.3291 11.293C79.7405 11.7513 78.79 11.9805 77.4775 11.9805H76.8056V8.64453Z" fill="#001E33"/>
<path d="M87.5334 4.01172H91.8459V11.9805H91.3538C89.9996 11.9805 89.0256 11.7435 88.4319 11.2695C87.8329 10.7904 87.5334 9.9987 87.5334 8.89453V4.01172ZM81.8928 8.08984C81.8928 7.51693 81.9683 6.98568 82.1194 6.49609C82.2704 6.0013 82.5048 5.56901 82.8225 5.19922C83.51 4.40755 84.4944 4.01172 85.7756 4.01172H86.3772V11.9805H85.9709C84.6584 11.9805 83.6428 11.6211 82.9241 10.9023C82.2366 10.2148 81.8928 9.27734 81.8928 8.08984Z" fill="#001E33"/>
<path d="M92.793 0.0195312H96.9961V11.9805H92.793V0.0195312Z" fill="#FF8B13"/>
<path d="M17.1104 4.01172H16.5088V11.9805H16.915C18.2275 11.9805 19.2432 11.6211 19.9619 10.9023C20.6494 10.2148 20.9932 9.26693 20.9932 8.05859C20.9932 6.87109 20.6833 5.91797 20.0635 5.19922C19.376 4.40755 18.3916 4.01172 17.1104 4.01172Z" fill="#0075C8"/>
</svg>
