<svg width="24" height="24" viewBox="0 0 24 24" fill="none" xmlns="http://www.w3.org/2000/svg">
<path opacity="0.2" d="M20.4937 4.46157L15 20.3334C14.7656 21.0178 13.7906 20.9991 13.575 20.3053L11.3625 13.1241C11.3291 13.0067 11.2657 12.9 11.1786 12.8145C11.0915 12.729 10.9836 12.6677 10.8656 12.6366L3.69371 10.4241C2.99996 10.2084 2.98121 9.23344 3.66558 8.99907L19.5375 3.50532C19.6708 3.45845 19.8147 3.45022 19.9525 3.48158C20.0904 3.51294 20.2165 3.58261 20.3165 3.68256C20.4164 3.78251 20.4861 3.90867 20.5174 4.0465C20.5488 4.18433 20.5406 4.32821 20.4937 4.46157V4.46157Z" fill="white"/>
<path d="M20.4937 4.46157L15 20.3334C14.7656 21.0178 13.7906 20.9991 13.575 20.3053L11.3625 13.1241C11.3291 13.0067 11.2657 12.9 11.1786 12.8145C11.0915 12.729 10.9836 12.6677 10.8656 12.6366L3.69371 10.4241C2.99996 10.2084 2.98121 9.23344 3.66558 8.99907L19.5375 3.50532C19.6708 3.45845 19.8147 3.45022 19.9525 3.48158C20.0904 3.51294 20.2165 3.58261 20.3165 3.68256C20.4164 3.78251 20.4861 3.90867 20.5174 4.0465C20.5488 4.18433 20.5406 4.32821 20.4937 4.46157V4.46157Z" stroke="white" stroke-width="2" stroke-linecap="round" stroke-linejoin="round"/>
</svg>
