<svg width="20" height="21" viewBox="0 0 20 21" fill="none" xmlns="http://www.w3.org/2000/svg">
<path opacity="0.2" d="M15 9.87591L10.625 5.50091L12.6797 3.44622C12.7378 3.38717 12.8072 3.34027 12.8836 3.30826C12.9601 3.27625 13.0421 3.25977 13.125 3.25977C13.2079 3.25977 13.2899 3.27625 13.3664 3.30826C13.4428 3.34027 13.5122 3.38717 13.5703 3.44622L17.0547 6.9306C17.1137 6.98875 17.1606 7.05807 17.1926 7.13452C17.2247 7.21097 17.2411 7.29303 17.2411 7.37591C17.2411 7.45879 17.2247 7.54084 17.1926 7.61729C17.1606 7.69374 17.1137 7.76306 17.0547 7.82122L15 9.87591Z" fill="#0D0D0E" fill-opacity="0.4"/>
<path d="M7.5 17.3759H3.75C3.58424 17.3759 3.42527 17.3101 3.30806 17.1928C3.19085 17.0756 3.125 16.9167 3.125 16.7509V13.2587C3.12472 13.1776 3.14044 13.0971 3.17128 13.0221C3.20211 12.947 3.24745 12.8787 3.30469 12.8212L12.6797 3.44622C12.7378 3.38717 12.8072 3.34027 12.8836 3.30826C12.9601 3.27625 13.0421 3.25977 13.125 3.25977C13.2079 3.25977 13.2899 3.27625 13.3664 3.30826C13.4428 3.34027 13.5122 3.38717 13.5703 3.44622L17.0547 6.9306C17.1137 6.98875 17.1606 7.05807 17.1927 7.13452C17.2247 7.21097 17.2411 7.29303 17.2411 7.37591C17.2411 7.45879 17.2247 7.54084 17.1927 7.61729C17.1606 7.69374 17.1137 7.76306 17.0547 7.82122L7.5 17.3759Z" stroke="#0D0D0E" stroke-opacity="0.4" stroke-width="2" stroke-linecap="round" stroke-linejoin="round"/>
<path d="M10.625 5.5L15 9.875" stroke="#0D0D0E" stroke-opacity="0.4" stroke-width="2" stroke-linecap="round" stroke-linejoin="round"/>
<path d="M16.875 17.375H7.5" stroke="#0D0D0E" stroke-opacity="0.4" stroke-width="2" stroke-linecap="round" stroke-linejoin="round"/>
</svg>
