<svg width="40" height="40" viewBox="0 0 40 40" fill="none" xmlns="http://www.w3.org/2000/svg">
<path d="M19.9998 3.33203C13.3432 3.33203 7.92773 8.74753 7.92773 15.404C7.92773 23.665 18.731 35.7925 19.191 36.3047C19.623 36.7859 20.3773 36.785 20.8087 36.3047C21.2685 35.7925 32.0718 23.665 32.0718 15.404C32.0717 8.74753 26.6563 3.33203 19.9998 3.33203ZM19.9998 21.4779C16.6507 21.4779 13.9261 18.7532 13.9261 15.404C13.9261 12.0549 16.6508 9.33033 19.9998 9.33033C23.3488 9.33033 26.0735 12.055 26.0735 15.4041C26.0735 18.7532 23.3488 21.4779 19.9998 21.4779Z" fill="#0075C8"/>
</svg>
