<svg width="41" height="40" viewBox="0 0 41 40" fill="none" xmlns="http://www.w3.org/2000/svg">
<path opacity="0.2" d="M14.25 11.25V33.75H6.75C6.41848 33.75 6.10054 33.6183 5.86612 33.3839C5.6317 33.1495 5.5 32.8315 5.5 32.5V12.5C5.5 12.1685 5.6317 11.8505 5.86612 11.6161C6.10054 11.3817 6.41848 11.25 6.75 11.25H14.25Z" fill="white"/>
<path opacity="0.2" d="M26.75 11.25V33.75H34.25C34.5815 33.75 34.8995 33.6183 35.1339 33.3839C35.3683 33.1495 35.5 32.8315 35.5 32.5V12.5C35.5 12.1685 35.3683 11.8505 35.1339 11.6161C34.8995 11.3817 34.5815 11.25 34.25 11.25H26.75Z" fill="white"/>
<path d="M34.25 11.25H6.75C6.05964 11.25 5.5 11.8096 5.5 12.5V32.5C5.5 33.1904 6.05964 33.75 6.75 33.75H34.25C34.9404 33.75 35.5 33.1904 35.5 32.5V12.5C35.5 11.8096 34.9404 11.25 34.25 11.25Z" stroke="white" stroke-width="2.46575" stroke-linecap="round" stroke-linejoin="round"/>
<path d="M26.75 33.75V8.75C26.75 8.08696 26.4866 7.45107 26.0178 6.98223C25.5489 6.51339 24.913 6.25 24.25 6.25H16.75C16.087 6.25 15.4511 6.51339 14.9822 6.98223C14.5134 7.45107 14.25 8.08696 14.25 8.75V33.75" stroke="white" stroke-width="2.46575" stroke-linecap="round" stroke-linejoin="round"/>
</svg>
