<svg width="64" height="64" viewBox="0 0 64 64" fill="none" xmlns="http://www.w3.org/2000/svg">
<rect width="64" height="64" fill="white"/>
<path d="M5.59863 19.2012H8.3211V35.9422H5.59863V19.2012ZM13.5026 27.1271C13.8539 27.171 14.2271 27.2808 14.6113 27.4674C15.0065 27.654 15.3688 27.9065 15.7091 28.2358C16.0494 28.5652 16.3348 28.9713 16.5654 29.4543C16.7959 29.9264 16.9057 30.4753 16.9057 31.101C16.9057 31.8585 16.7959 32.5061 16.5654 33.055C16.3348 33.6039 16.0494 34.054 15.7091 34.4053C15.3688 34.7566 14.9955 35.042 14.6003 35.2506C14.1942 35.4592 13.8099 35.6128 13.4367 35.7116C13.0635 35.8214 12.7341 35.8873 12.4487 35.9092C12.1633 35.9312 11.9767 35.9422 11.8779 35.9422H9.24323V33.9442H11.7242C12.5256 33.9442 13.1513 33.6917 13.6124 33.1758C14.0624 32.6598 14.293 31.9682 14.293 31.112C14.293 30.2887 14.0624 29.608 13.5904 29.0482C13.1184 28.4883 12.4268 28.2029 11.5266 28.2029H9.25421V26.3586H10.341C10.6703 26.3586 11.0106 26.3477 11.3619 26.3367C11.7132 26.3257 12.0316 26.2379 12.3389 26.0842C12.6463 25.9305 12.8878 25.678 13.0744 25.3158C13.2611 24.9535 13.3599 24.4266 13.3599 23.7459C13.3599 23.4715 13.3269 23.1861 13.2501 22.8897C13.1732 22.5933 13.0196 22.3298 12.8 22.0883C12.5695 21.8468 12.2511 21.6492 11.823 21.4955C11.3949 21.3418 10.835 21.265 10.1434 21.265H9.25421V19.2012H10.4178C11.1314 19.2012 11.823 19.289 12.4817 19.4537C13.1513 19.6183 13.7441 19.8818 14.2491 20.2441C14.765 20.6063 15.1712 21.0784 15.4786 21.6602C15.7859 22.242 15.9286 22.9336 15.9286 23.735C15.9286 24.207 15.8518 24.6351 15.6981 25.0194C15.5444 25.4036 15.3578 25.7439 15.1273 26.0293C14.8967 26.3147 14.6443 26.5562 14.3479 26.7429C14.0624 26.9405 13.777 27.0612 13.5026 27.1271Z" fill="black"/>
<path d="M22.9983 19.2012L25.5232 25.7219L24.2937 28.6969L19.8916 19.2012H22.9983ZM29.2446 19.2012H32.3513L27.3784 29.125V35.9422H24.612V30.3545L29.2446 19.2012Z" fill="black"/>
<path d="M35.8649 32.8784C36.0734 32.9992 36.3479 33.1199 36.6662 33.2297C36.9956 33.3395 37.3249 33.4493 37.6762 33.5481C38.0275 33.6469 38.3678 33.7237 38.7191 33.7896C39.0703 33.8555 39.3887 33.8774 39.6961 33.8774H39.7619V36.04H39.718C39.3558 36.04 38.9825 36.0181 38.5983 35.9851C38.2141 35.9522 37.8189 35.8863 37.4237 35.7875C37.0285 35.6997 36.6553 35.568 36.304 35.4143C35.9527 35.2606 35.6453 35.063 35.3818 34.8325L35.8649 32.8784ZM35.4916 23.6023C35.4916 22.9326 35.6014 22.3398 35.8319 21.8129C36.0625 21.286 36.3698 20.8139 36.754 20.4187C37.1383 20.0126 37.5993 19.6942 38.1153 19.4637C38.6422 19.2332 39.1911 19.0685 39.7619 19.0026V21.3738C39.2789 21.5385 38.8727 21.8349 38.5544 22.252C38.236 22.6692 38.0823 23.0863 38.0823 23.5145C38.0823 24.1073 38.236 24.5793 38.5544 24.9416C38.8727 25.3038 39.2789 25.6222 39.7619 25.8966V28.4874C39.257 28.2458 38.763 27.9824 38.258 27.7079C37.753 27.4225 37.3029 27.0932 36.8968 26.7199C36.4906 26.3467 36.1503 25.9076 35.8868 25.4026C35.6343 24.8977 35.4916 24.3049 35.4916 23.6023ZM43.3297 21.791C43.2529 21.758 43.165 21.7031 43.0553 21.6373C42.9455 21.5604 42.8028 21.4946 42.6052 21.4177C42.4076 21.3519 42.1551 21.297 41.8587 21.2421C41.5513 21.1982 41.1671 21.1872 40.695 21.2201V18.9258C41.3647 18.9368 42.0343 19.0136 42.7259 19.1453C43.4175 19.2771 43.9664 19.4747 44.3945 19.7491C44.3067 19.9467 44.1969 20.1663 44.0762 20.3968C43.9554 20.6273 43.8456 20.8469 43.7359 21.0555C43.6261 21.264 43.5383 21.4287 43.4614 21.5714C43.3956 21.6922 43.3517 21.769 43.3297 21.791ZM40.695 26.3577C41.2 26.5882 41.705 26.8297 42.2319 27.0822C42.7589 27.3347 43.2309 27.6531 43.6481 28.0263C44.0762 28.3995 44.4165 28.8496 44.6909 29.3766C44.9654 29.9035 45.0971 30.5621 45.0971 31.3525C45.0971 31.9014 44.9983 32.4284 44.7897 32.9443C44.5811 33.4603 44.2957 33.9213 43.9225 34.3385C43.5493 34.7556 43.0882 35.1069 42.5503 35.3923C42.0014 35.6777 41.3866 35.8644 40.6841 35.9632V33.7786C41.9246 33.4712 42.5503 32.6479 42.5503 31.2977C42.5503 30.7707 42.3746 30.3316 42.0233 29.9803C41.6721 29.629 41.233 29.3107 40.6841 29.0033V26.3577H40.695Z" fill="black"/>
<path d="M50.739 19.2012V33.8784H58.4454V35.9422H47.9727V19.2012H50.739Z" fill="black"/>
<path d="M23.2727 14.1621H5.59863V16.3906H23.2727V14.1621Z" fill="#C8C8C8"/>
<path d="M58.4456 14.1621H40.7715V16.3906H58.4456V14.1621Z" fill="#404040"/>
<path d="M40.7826 14.1621H23.2842V16.3906H40.7826V14.1621Z" fill="#408CD9"/>
<path d="M23.2727 38.7305H5.59863V40.9589H23.2727V38.7305Z" fill="#C8C8C8"/>
<path d="M58.4456 38.7305H40.7715V40.9589H58.4456V38.7305Z" fill="#404040"/>
<path d="M40.7826 38.7305H23.2842V40.9589H40.7826V38.7305Z" fill="#408CD9"/>
<path d="M16.3682 49.6412V45.7441H17.1586V48.9716H19.1345V49.6412H16.3682Z" fill="black"/>
<path d="M24.3929 45.7109H23.6025V49.641H24.3929V45.7109Z" fill="black"/>
<path d="M30.1786 49.641L28.7734 45.7109H29.6297L30.6287 48.62L31.5837 45.7109H32.429L31.0239 49.641H30.1786Z" fill="black"/>
<path d="M36.8633 49.641V45.7109H39.7724V46.3696H37.6537V47.2478H39.6297V47.9065H37.6537V48.9713H39.8492V49.641H36.8633Z" fill="black"/>
<path d="M47.688 47.676C47.688 48.8836 46.7109 49.8715 45.4924 49.8715C44.2849 49.8715 43.2969 48.8945 43.2969 47.676C43.2969 46.4575 44.2739 45.4805 45.4924 45.4805C46.7109 45.4805 47.688 46.4685 47.688 47.676Z" stroke="#00E574" stroke-width="0.417811" stroke-miterlimit="10"/>
<path d="M46.6998 47.677C46.6998 48.3357 46.1619 48.8736 45.5032 48.8736C44.8445 48.8736 44.3066 48.3357 44.3066 47.677C44.3066 47.0184 44.8445 46.4805 45.5032 46.4805C46.1619 46.4805 46.6998 47.0184 46.6998 47.677Z" fill="#00E574"/>
</svg>
