<svg width="33" height="32" viewBox="0 0 33 32" fill="none" xmlns="http://www.w3.org/2000/svg">
<g clip-path="url(#clip0_1290_86350)">
<path d="M16.5 32C25.3366 32 32.5 24.8366 32.5 16C32.5 7.16344 25.3366 0 16.5 0C7.66344 0 0.5 7.16344 0.5 16C0.5 24.8366 7.66344 32 16.5 32Z" fill="#3C5A9A"/>
<path d="M21.7018 4.91016H18.1574C16.0541 4.91016 13.7146 5.7948 13.7146 8.84371C13.7248 9.90607 13.7146 10.9235 13.7146 12.0685H11.2812V15.9406H13.7899V27.0878H18.3995V15.8671H21.4421L21.7174 12.0577H18.3201C18.3201 12.0577 18.3277 10.3631 18.3201 9.87097C18.3201 8.66611 19.5738 8.73511 19.6492 8.73511C20.2458 8.73511 21.4058 8.73685 21.7036 8.73511V4.91016H21.7018Z" fill="white"/>
</g>
<defs>
<clipPath id="clip0_1290_86350">
<rect width="32" height="32" fill="white" transform="translate(0.5)"/>
</clipPath>
</defs>
</svg>
