<svg width="21" height="20" viewBox="0 0 21 20" fill="none" xmlns="http://www.w3.org/2000/svg">
<path d="M12.1667 7.75V10.1667H14.3333C14.5 10.1667 14.5833 10.3333 14.5833 10.5L14.25 12.0833C14.25 12.1667 14.0833 12.25 14 12.25H12.1667V18.3333H9.66667V12.3333H8.25C8.08333 12.3333 8 12.25 8 12.0833V10.5C8 10.3333 8.08333 10.25 8.25 10.25H9.66667V7.5C9.66667 6.08333 10.75 5 12.1667 5H14.4167C14.5833 5 14.6667 5.08333 14.6667 5.25V7.25C14.6667 7.41667 14.5833 7.5 14.4167 7.5H12.4167C12.25 7.5 12.1667 7.58333 12.1667 7.75Z" stroke="#0075C8" stroke-miterlimit="10" stroke-linecap="round"/>
<path d="M13.0003 18.3327H8.00033C3.83366 18.3327 2.16699 16.666 2.16699 12.4993V7.49935C2.16699 3.33268 3.83366 1.66602 8.00033 1.66602H13.0003C17.167 1.66602 18.8337 3.33268 18.8337 7.49935V12.4993C18.8337 16.666 17.167 18.3327 13.0003 18.3327Z" stroke="#0075C8" stroke-linecap="round" stroke-linejoin="round"/>
</svg>
