<svg width="193" height="24" viewBox="0 0 193 24" fill="none" xmlns="http://www.w3.org/2000/svg">
<path d="M12.3611 2.61553H20.8685V16.8304C20.8685 19.097 20.3506 20.7636 19.3147 21.8302C18.1763 22.9789 16.32 23.5533 13.7457 23.5533H12.3611V2.61553ZM0.5 16.3689H9.80736V23.5533H8.8074C5.86391 23.5533 3.74604 23.0815 2.45378 22.1379C1.15126 21.2046 0.5 19.6508 0.5 17.4765V16.3689Z" fill="#001E33"/>
<path d="M21.6863 15.892C21.6863 14.7638 21.835 13.7177 22.1325 12.7536C22.4299 11.7793 22.8914 10.9281 23.517 10.1999C24.8708 8.64096 26.8092 7.8615 29.3322 7.8615H30.5168V23.5533H29.7168C27.1323 23.5533 25.1324 22.8456 23.717 21.4303C22.3632 20.0765 21.6863 18.2304 21.6863 15.892Z" fill="#001E33"/>
<path d="M43.0265 0.015625H51.3031V23.5225H43.0265V0.015625ZM53.8569 7.8615H55.0415C57.5645 7.8615 59.4926 8.64096 60.8259 10.1999C62.0463 11.6255 62.6566 13.5023 62.6566 15.8305C62.6566 18.1996 61.9848 20.0662 60.6413 21.4303C59.2464 22.8456 57.2516 23.5533 54.6569 23.5533H53.8569V7.8615Z" fill="#001E33"/>
<path d="M87.676 2.61553H88.8144C91.8605 2.61553 94.1373 3.34884 95.645 4.81546C97.0295 6.159 97.7218 8.0615 97.7218 10.5229C97.7218 12.7075 97.0039 14.4664 95.568 15.7997C94.0399 17.215 91.9323 17.9227 89.2452 17.9227H87.676V2.61553ZM76.6302 2.61553H84.9069V23.5225H76.6302V2.61553Z" fill="#001E33"/>
<path d="M109.508 7.8615H110.693C113.216 7.8615 115.154 8.64096 116.508 10.1999C117.729 11.6152 118.339 13.4921 118.339 15.8305C118.339 18.2099 117.662 20.0765 116.308 21.4303C114.893 22.8456 112.893 23.5533 110.308 23.5533H109.508V7.8615ZM98.1858 15.892C98.1858 14.7638 98.3345 13.7177 98.6319 12.7536C98.9294 11.7793 99.3909 10.9281 100.016 10.1999C101.37 8.64096 103.309 7.8615 105.832 7.8615H107.016V23.5533H106.216C103.632 23.5533 101.632 22.8456 100.216 21.4303C98.8627 20.0765 98.1858 18.2304 98.1858 15.892Z" fill="#001E33"/>
<path d="M131.233 12.2306C131.233 9.31786 133.115 7.8615 136.879 7.8615H139.033V15.7074H131.233V12.2306ZM120.464 7.8615H129.018V23.5533H120.464V7.8615Z" fill="#001E33"/>
<path d="M148.297 23.5533C143.22 23.5533 140.682 21.2354 140.682 16.5997V7.95381L147.189 3.69242H149.497V23.5533H148.297ZM151.727 7.8615H159.096V13.0152H151.727V7.8615ZM151.743 16.9843H160.281V18.3381C160.281 20.0816 159.748 21.3687 158.681 22.1995C157.522 23.102 155.65 23.5533 153.066 23.5533H151.743V16.9843Z" fill="#001E33"/>
<path d="M172.867 7.8615H181.359V23.5533H180.39C177.724 23.5533 175.806 23.0866 174.637 22.1533C173.457 21.2097 172.867 19.6508 172.867 17.4765V7.8615ZM161.76 15.892C161.76 14.7638 161.909 13.7177 162.206 12.7536C162.504 11.7793 162.965 10.9281 163.591 10.1999C164.945 8.64096 166.883 7.8615 169.406 7.8615H170.591V23.5533H169.791C167.206 23.5533 165.206 22.8456 163.791 21.4303C162.437 20.0765 161.76 18.2304 161.76 15.892Z" fill="#001E33"/>
<path d="M183.224 0H191.5V23.553H183.224V0Z" fill="#FF8B13"/>
<path d="M34.1934 7.86133H33.0088V23.5531H33.8088C36.3933 23.5531 38.3932 22.8454 39.8085 21.4301C41.1623 20.0763 41.8392 18.2097 41.8392 15.8303C41.8392 13.4919 41.229 11.615 40.0085 10.1997C38.6547 8.64079 36.7164 7.86133 34.1934 7.86133Z" fill="#0075C8"/>
</svg>
