<svg width="21" height="20" viewBox="0 0 21 20" fill="none" xmlns="http://www.w3.org/2000/svg">
<path opacity="0.2" d="M10.5 1.875C8.8424 1.875 7.25269 2.53348 6.08058 3.70558C4.90848 4.87769 4.25 6.4674 4.25 8.125C4.25 13.75 10.5 18.125 10.5 18.125C10.5 18.125 16.75 13.75 16.75 8.125C16.75 6.4674 16.0915 4.87769 14.9194 3.70558C13.7473 2.53348 12.1576 1.875 10.5 1.875ZM10.5 10.625C10.0055 10.625 9.5222 10.4784 9.11107 10.2037C8.69995 9.92897 8.37952 9.53852 8.1903 9.08171C8.00108 8.62489 7.95157 8.12223 8.04804 7.63727C8.1445 7.15232 8.3826 6.70686 8.73223 6.35723C9.08186 6.0076 9.52732 5.7695 10.0123 5.67304C10.4972 5.57657 10.9999 5.62608 11.4567 5.8153C11.9135 6.00452 12.304 6.32495 12.5787 6.73607C12.8534 7.1472 13 7.63055 13 8.125C13 8.78804 12.7366 9.42393 12.2678 9.89277C11.7989 10.3616 11.163 10.625 10.5 10.625Z" fill="#0D0D0E" fill-opacity="0.4"/>
<path d="M10.5 10.625C11.8807 10.625 13 9.50571 13 8.125C13 6.74429 11.8807 5.625 10.5 5.625C9.11929 5.625 8 6.74429 8 8.125C8 9.50571 9.11929 10.625 10.5 10.625Z" stroke="#0D0D0E" stroke-opacity="0.4" stroke-width="1.5" stroke-linecap="round" stroke-linejoin="round"/>
<path d="M16.75 8.125C16.75 13.75 10.5 18.125 10.5 18.125C10.5 18.125 4.25 13.75 4.25 8.125C4.25 6.4674 4.90848 4.87769 6.08058 3.70558C7.25269 2.53348 8.8424 1.875 10.5 1.875C12.1576 1.875 13.7473 2.53348 14.9194 3.70558C16.0915 4.87769 16.75 6.4674 16.75 8.125V8.125Z" stroke="#0D0D0E" stroke-opacity="0.4" stroke-width="1.5" stroke-linecap="round" stroke-linejoin="round"/>
</svg>
