<svg width="40" height="40" viewBox="0 0 40 40" fill="none" xmlns="http://www.w3.org/2000/svg">
<path d="M28.3333 35.001C25.5772 34.9985 22.8638 34.3173 20.4333 33.0176L19.6833 32.601C14.5013 29.8148 10.2528 25.5663 7.46667 20.3843L7.05 19.6343C5.71637 17.19 5.01188 14.4521 5 11.6676V10.5509C4.9993 9.66253 5.35327 8.8106 5.98333 8.18427L8.8 5.3676C9.07355 5.09193 9.45968 4.95907 9.84493 5.00803C10.2302 5.057 10.5708 5.28227 10.7667 5.6176L14.5167 12.0509C14.8959 12.7058 14.7864 13.5339 14.25 14.0676L11.1 17.2176C10.8384 17.4763 10.7775 17.876 10.95 18.201L11.5333 19.301C13.6284 23.1816 16.8155 26.363 20.7 28.451L21.8 29.051C22.125 29.2235 22.5247 29.1625 22.7833 28.901L25.9333 25.751C26.467 25.2146 27.2952 25.1051 27.95 25.4843L34.3833 29.2343C34.7187 29.4301 34.944 29.7708 34.9928 30.156C35.0418 30.5413 34.909 30.9275 34.6333 31.201L31.8167 34.0176C31.1903 34.6476 30.3383 35.0016 29.45 35.001H28.3333Z" fill="#0075C8"/>
</svg>
