<svg width="40" height="40" viewBox="0 0 40 40" fill="none" xmlns="http://www.w3.org/2000/svg">
<path opacity="0.2" d="M13.75 11.25V33.75H6.25C5.91848 33.75 5.60054 33.6183 5.36612 33.3839C5.1317 33.1495 5 32.8315 5 32.5V12.5C5 12.1685 5.1317 11.8505 5.36612 11.6161C5.60054 11.3817 5.91848 11.25 6.25 11.25H13.75Z" fill="#0075C8"/>
<path opacity="0.2" d="M26.25 11.25V33.75H33.75C34.0815 33.75 34.3995 33.6183 34.6339 33.3839C34.8683 33.1495 35 32.8315 35 32.5V12.5C35 12.1685 34.8683 11.8505 34.6339 11.6161C34.3995 11.3817 34.0815 11.25 33.75 11.25H26.25Z" fill="#0075C8"/>
<path d="M33.75 11.25H6.25C5.55964 11.25 5 11.8096 5 12.5V32.5C5 33.1904 5.55964 33.75 6.25 33.75H33.75C34.4404 33.75 35 33.1904 35 32.5V12.5C35 11.8096 34.4404 11.25 33.75 11.25Z" stroke="#0075C8" stroke-width="3" stroke-linecap="round" stroke-linejoin="round"/>
<path d="M26.25 33.75V8.75C26.25 8.08696 25.9866 7.45107 25.5178 6.98223C25.0489 6.51339 24.413 6.25 23.75 6.25H16.25C15.587 6.25 14.9511 6.51339 14.4822 6.98223C14.0134 7.45107 13.75 8.08696 13.75 8.75V33.75" stroke="#0075C8" stroke-width="3" stroke-linecap="round" stroke-linejoin="round"/>
</svg>
