<svg width="43" height="43" viewBox="0 0 43 43" fill="none" xmlns="http://www.w3.org/2000/svg">
<path opacity="0.2" d="M21.4043 30.4355C25.0287 30.4355 27.9668 27.4974 27.9668 23.873C27.9668 20.2487 25.0287 17.3105 21.4043 17.3105C17.7799 17.3105 14.8418 20.2487 14.8418 23.873C14.8418 27.4974 17.7799 30.4355 21.4043 30.4355Z" fill="white"/>
<path opacity="0.2" d="M10.248 19.9355C13.1475 19.9355 15.498 17.585 15.498 14.6855C15.498 11.7861 13.1475 9.43555 10.248 9.43555C7.34855 9.43555 4.99805 11.7861 4.99805 14.6855C4.99805 17.585 7.34855 19.9355 10.248 19.9355Z" fill="white"/>
<path opacity="0.2" d="M36.4698 14.6855C36.4698 16.8446 34.7196 18.5948 32.5605 18.5948C30.4015 18.5948 28.6513 16.8446 28.6513 14.6855C28.6513 12.5265 30.4015 10.7763 32.5605 10.7763C34.7196 10.7763 36.4698 12.5265 36.4698 14.6855Z" fill="white" stroke="white" stroke-width="2.68151"/>
<path d="M21.4043 30.4355C25.0287 30.4355 27.9668 27.4974 27.9668 23.873C27.9668 20.2487 25.0287 17.3105 21.4043 17.3105C17.7799 17.3105 14.8418 20.2487 14.8418 23.873C14.8418 27.4974 17.7799 30.4355 21.4043 30.4355Z" stroke="white" stroke-width="2.68151" stroke-linecap="round" stroke-linejoin="round"/>
<path d="M32.5605 19.9356C34.0892 19.933 35.5973 20.2877 36.9645 20.9713C38.3318 21.6549 39.5204 22.6486 40.4355 23.8731" stroke="white" stroke-width="2.68151" stroke-linecap="round" stroke-linejoin="round"/>
<path d="M2.37305 23.8731C3.28819 22.6486 4.47679 21.6549 5.84405 20.9713C7.21131 20.2877 8.7194 19.933 10.248 19.9356" stroke="white" stroke-width="2.68151" stroke-linecap="round" stroke-linejoin="round"/>
<path d="M11.9541 36.3415C12.8184 34.5714 14.1625 33.0797 15.8333 32.0362C17.504 30.9927 19.4343 30.4395 21.4041 30.4395C23.3739 30.4395 25.3042 30.9927 26.9749 32.0362C28.6457 33.0797 29.9898 34.5714 30.8541 36.3415" stroke="white" stroke-width="2.68151" stroke-linecap="round" stroke-linejoin="round"/>
<path d="M10.2485 19.9355C9.25205 19.9366 8.27589 19.654 7.43408 19.1208C6.59227 18.5876 5.91957 17.8259 5.4946 16.9246C5.06962 16.0234 4.9099 15.0198 5.03412 14.0311C5.15834 13.0424 5.56135 12.1095 6.19607 11.3414C6.8308 10.5732 7.67101 10.0016 8.61855 9.69324C9.56609 9.38489 10.5818 9.35256 11.547 9.60004C12.5123 9.84751 13.3871 10.3646 14.0694 11.0908C14.7517 11.817 15.2132 12.7224 15.4001 13.7012" stroke="white" stroke-width="2.68151" stroke-linecap="round" stroke-linejoin="round"/>
<path d="M27.4092 13.7012C27.596 12.7224 28.0575 11.817 28.7398 11.0908C29.4221 10.3646 30.297 9.84751 31.2622 9.60004C32.2274 9.35256 33.2431 9.38489 34.1907 9.69324C35.1382 10.0016 35.9784 10.5732 36.6132 11.3414C37.2479 12.1095 37.6509 13.0424 37.7751 14.0311C37.8993 15.0198 37.7396 16.0234 37.3146 16.9246C36.8897 17.8259 36.217 18.5876 35.3752 19.1208C34.5333 19.654 33.5572 19.9366 32.5607 19.9355" stroke="white" stroke-width="2.68151" stroke-linecap="round" stroke-linejoin="round"/>
</svg>
