<svg width="40" height="40" viewBox="0 0 40 40" fill="none" xmlns="http://www.w3.org/2000/svg">
<path opacity="0.2" d="M20 28.125C23.4518 28.125 26.25 25.3268 26.25 21.875C26.25 18.4232 23.4518 15.625 20 15.625C16.5482 15.625 13.75 18.4232 13.75 21.875C13.75 25.3268 16.5482 28.125 20 28.125Z" fill="#0075C8"/>
<path opacity="0.2" d="M9.375 18.125C12.1364 18.125 14.375 15.8864 14.375 13.125C14.375 10.3636 12.1364 8.125 9.375 8.125C6.61358 8.125 4.375 10.3636 4.375 13.125C4.375 15.8864 6.61358 18.125 9.375 18.125Z" fill="#0075C8"/>
<path opacity="0.2" d="M34.125 13.125C34.125 15.058 32.558 16.625 30.625 16.625C28.692 16.625 27.125 15.058 27.125 13.125C27.125 11.192 28.692 9.625 30.625 9.625C32.558 9.625 34.125 11.192 34.125 13.125Z" fill="#0075C8" stroke="#0075C8" stroke-width="3"/>
<path d="M20 28.125C23.4518 28.125 26.25 25.3268 26.25 21.875C26.25 18.4232 23.4518 15.625 20 15.625C16.5482 15.625 13.75 18.4232 13.75 21.875C13.75 25.3268 16.5482 28.125 20 28.125Z" stroke="#0075C8" stroke-width="3" stroke-linecap="round" stroke-linejoin="round"/>
<path d="M30.625 18.125C32.0809 18.1226 33.5171 18.4604 34.8193 19.1114C36.1214 19.7625 37.2534 20.7089 38.125 21.875" stroke="#0075C8" stroke-width="3" stroke-linecap="round" stroke-linejoin="round"/>
<path d="M1.875 21.875C2.74656 20.7089 3.87856 19.7625 5.18072 19.1114C6.48287 18.4604 7.91915 18.1226 9.375 18.125" stroke="#0075C8" stroke-width="3" stroke-linecap="round" stroke-linejoin="round"/>
<path d="M11 33.7499C11.8232 32.0641 13.1033 30.6434 14.6944 29.6496C16.2856 28.6558 18.124 28.1289 20 28.1289C21.876 28.1289 23.7144 28.6558 25.3056 29.6496C26.8967 30.6434 28.1768 32.0641 29 33.7499" stroke="#0075C8" stroke-width="3" stroke-linecap="round" stroke-linejoin="round"/>
<path d="M9.37519 18.125C8.4262 18.126 7.49652 17.8568 6.6948 17.3491C5.89308 16.8413 5.25241 16.1158 4.84767 15.2575C4.44293 14.3991 4.29082 13.4433 4.40912 12.5017C4.52742 11.5601 4.91125 10.6716 5.51574 9.94007C6.12024 9.20851 6.92045 8.66409 7.82287 8.37042C8.72528 8.07676 9.69264 8.04597 10.6119 8.28166C11.5312 8.51735 12.3644 9.00978 13.0142 9.70142C13.664 10.3931 14.1035 11.2553 14.2814 12.1875" stroke="#0075C8" stroke-width="3" stroke-linecap="round" stroke-linejoin="round"/>
<path d="M25.7188 12.1875C25.8967 11.2553 26.3362 10.3931 26.986 9.70142C27.6358 9.00978 28.469 8.51735 29.3883 8.28166C30.3076 8.04597 31.2749 8.07676 32.1773 8.37042C33.0797 8.66409 33.8799 9.20851 34.4844 9.94007C35.0889 10.6716 35.4728 11.5601 35.5911 12.5017C35.7094 13.4433 35.5573 14.3991 35.1525 15.2575C34.7478 16.1158 34.1071 16.8413 33.3054 17.3491C32.5037 17.8568 31.574 18.126 30.625 18.125" stroke="#0075C8" stroke-width="3" stroke-linecap="round" stroke-linejoin="round"/>
</svg>
