<svg width="100" height="28" viewBox="0 0 100 28" fill="none" xmlns="http://www.w3.org/2000/svg">
<g clip-path="url(#clip0_1184_60503)">
<path d="M55.6011 6.18082C56.4268 5.53881 56.9536 4.57405 56.9536 3.49688C56.9536 1.56911 55.2679 0.000579337 53.1962 0.000579337C51.1244 0.000579337 49.4387 1.56911 49.4387 3.49688V8.86476C49.4387 9.89673 48.5364 10.7363 47.4274 10.7363C46.3183 10.7363 45.416 9.89673 45.416 8.86476C45.416 7.83279 46.3183 6.99319 47.4274 6.99319H48.3004V5.36845H47.4274C46.3183 5.36845 45.416 4.52885 45.416 3.49688C45.416 2.46491 46.3183 1.62531 47.4274 1.62531C47.8876 1.62531 48.3203 1.76611 48.679 2.0315L49.7669 0.760217C49.1056 0.270016 48.2743 0 47.4274 0C45.3556 0 43.6699 1.56853 43.6699 3.4963C43.6699 4.57347 44.1967 5.53823 45.0225 6.18024C44.1967 6.82225 43.6699 7.78701 43.6699 8.86418C43.6699 10.792 45.3556 12.3605 47.4274 12.3605C49.4991 12.3605 51.1848 10.792 51.1848 8.86418V3.4963C51.1848 2.46433 52.0871 1.62473 53.1962 1.62473C54.3052 1.62473 55.2075 2.46433 55.2075 3.4963C55.2075 4.52828 54.3052 5.36788 53.1962 5.36788H52.3231V6.99261H53.1962C54.3052 6.99261 55.2075 7.83221 55.2075 8.86418C55.2075 9.89615 54.3052 10.7358 53.1962 10.7358C52.7547 10.7358 52.3356 10.6054 51.9844 10.358L50.9307 11.6542C51.5877 12.1165 52.3711 12.3605 53.1962 12.3605C55.2679 12.3605 56.9536 10.792 56.9536 8.86418C56.9542 7.78759 56.4274 6.82283 55.6011 6.18082Z" fill="#475569"/>
<path d="M32.2736 16.4297C33.826 16.4297 34.8155 17.0555 34.8155 18.0399C34.8155 18.7208 34.3603 19.2637 33.6286 19.4572C34.4992 19.6137 35.0528 20.2487 35.0528 21.086C35.0528 22.1811 34.024 22.8713 32.3925 22.8713H29V16.4297H32.2736ZM30.7504 19.0059H32.1746C32.6889 19.0059 33.0152 18.748 33.0152 18.3343C33.0152 17.9206 32.6889 17.6807 32.1746 17.6807H30.7504V19.0059ZM30.7504 21.6104H32.1746C32.8272 21.6104 33.2326 21.3433 33.2326 20.8832C33.2326 20.451 32.8272 20.1838 32.1746 20.1838H30.7504V21.6104Z" fill="#475569"/>
<path d="M43.1323 21.4997V22.8707H38.4346V16.4297H40.195V21.5003H43.1323V21.4997Z" fill="#475569"/>
<path d="M48.3249 22.8713L45.6348 16.4297H47.5135L49.2839 21.1689L51.0542 16.4297H52.8638L50.1444 22.8713H48.3249Z" fill="#475569"/>
<path d="M61.8331 17.4597L60.8144 18.5826C60.3592 18.0675 59.6873 17.7454 59.0739 17.7454C57.976 17.7454 57.1453 18.5554 57.1453 19.6135C57.1453 20.69 57.976 21.5094 59.0739 21.5094C59.6574 21.5094 60.3299 21.215 60.8144 20.7549L61.8431 21.7672C61.1014 22.4759 60.0036 22.9452 58.9848 22.9452C56.8981 22.9452 55.3457 21.5186 55.3457 19.6326C55.3457 17.7738 56.938 16.375 59.0446 16.375C60.0727 16.3738 61.1407 16.7974 61.8331 17.4597Z" fill="#475569"/>
<path d="M67.6889 20.3403L66.7692 21.2882V22.8713H65.0088V16.4297H66.7692V19.2179L69.4195 16.4297H71.457L68.8858 19.0986L71.6251 22.8713H69.5185L67.6889 20.3403Z" fill="#475569"/>
<path d="M45.7417 27.0842C45.6963 27.0883 45.6464 27.0883 45.5966 27.0883H44.8432V27.9794H44.3076V25.0234H45.5966C46.4093 25.0234 46.8763 25.3908 46.8763 26.0327C46.8763 26.5054 46.6403 26.8392 46.2181 26.9915L46.9305 27.9799H46.3221L45.7417 27.0842ZM45.5966 26.6404C46.0867 26.6404 46.3682 26.4464 46.3682 26.0449C46.3682 25.6561 46.0867 25.4707 45.5966 25.4707H44.8432V26.6404H45.5966Z" fill="#475569"/>
<path d="M52.0551 26.5005C52.0551 27.3452 51.3197 27.9999 50.3713 27.9999C49.4229 27.9999 48.6875 27.3452 48.6875 26.5005C48.6875 25.6517 49.4229 25.0098 50.3713 25.0098C51.3197 25.0098 52.0551 25.6558 52.0551 26.5005ZM49.2317 26.5005C49.2317 27.0874 49.7536 27.552 50.3757 27.552C50.9978 27.552 51.5059 27.0874 51.5059 26.5005C51.5059 25.9136 50.9978 25.4576 50.3757 25.4576C49.7492 25.457 49.2317 25.9136 49.2317 26.5005Z" fill="#475569"/>
<path d="M56.689 26.7532C56.689 27.5261 56.1672 27.9988 55.3091 27.9988C54.451 27.9988 53.9248 27.5261 53.9248 26.7532V25.0215H54.4603V26.7532C54.4603 27.2515 54.7916 27.5516 55.3135 27.5516C55.8309 27.5516 56.1529 27.2561 56.1529 26.7532V25.0215H56.6884V26.7532H56.689Z" fill="#475569"/>
<path d="M60.083 25.0234C60.8819 25.0234 61.3403 25.3908 61.3403 26.0327C61.3403 26.7001 60.8819 27.0883 60.083 27.0883H59.3519V27.9794H58.8164V25.0234H60.083ZM59.3519 26.6404H60.06C60.55 26.6404 60.8271 26.4464 60.8271 26.0449C60.8271 25.6561 60.55 25.4707 60.06 25.4707H59.3519V26.6404Z" fill="#475569"/>
<path d="M42.1654 26.4095H40.8596V26.8446H41.7201V27.3492C41.4935 27.4761 41.2251 27.552 40.9891 27.552C40.3402 27.552 39.8271 27.0914 39.8271 26.5005C39.8271 25.9136 40.3352 25.453 40.9847 25.453C41.316 25.453 41.6566 25.5799 41.9014 25.7907L42.2052 25.4234C41.892 25.1702 41.4381 25.0098 40.9841 25.0098C40.022 25.0098 39.2822 25.6558 39.2822 26.5005C39.2822 27.3452 40.0133 27.9999 40.9523 27.9999C41.3882 27.9999 41.8646 27.8434 42.1872 27.6157V26.4101L42.1654 26.4095Z" fill="#475569"/>
</g>
<defs>
<clipPath id="clip0_1184_60503">
<rect width="100" height="28" fill="white"/>
</clipPath>
</defs>
</svg>
