<svg width="100" height="28" viewBox="0 0 100 28" fill="none" xmlns="http://www.w3.org/2000/svg">
<path d="M71.444 15.0375H31.3859C30.0683 15.0375 29 14.0446 29 12.8199V6.18359H69.0582C70.3757 6.18359 71.444 7.17656 71.444 8.40124V15.0375Z" fill="#475569"/>
<path d="M52.1601 5.42718H29.0625V1H50.2375C51.2993 1 52.1601 1.80009 52.1601 2.78709V5.42718Z" fill="#475569"/>
<path d="M48.3535 15.834H71.4511V20.2612H50.2762C49.2143 20.2612 48.3535 19.4611 48.3535 18.4741V15.834Z" fill="#475569"/>
<path d="M30.334 27.3968H29.0527V24.6914C29.3392 24.6914 29.571 24.9159 29.571 25.1924V26.8975H29.8171C30.1027 26.8975 30.334 27.1207 30.334 27.3968Z" fill="#475569"/>
<path d="M37.0207 27.3968H35.6719V24.6914H37.0101C37.0101 24.9675 36.7787 25.1907 36.4932 25.1907H36.1883V25.7932H36.6364C36.7797 25.7932 36.8958 25.9054 36.8958 26.0437C36.8958 26.1819 36.7797 26.2942 36.6364 26.2942H36.1883V26.8971H36.5037C36.7893 26.8975 37.0207 27.1207 37.0207 27.3968Z" fill="#475569"/>
<path d="M43.7701 27.2677C43.6723 27.35 43.5474 27.3953 43.4175 27.3953H42.8896C42.7596 27.3953 42.6343 27.3492 42.537 27.266C42.4231 27.1687 42.3584 27.0287 42.3584 26.8815V25.2088C42.3584 25.0594 42.425 24.9173 42.5411 24.8187C42.6389 24.7355 42.7651 24.6895 42.8955 24.6895H43.4157C43.5465 24.6895 43.6723 24.7355 43.7701 24.8187C43.8862 24.9173 43.9528 25.0594 43.9528 25.2088V25.3969H43.4359V25.1887H42.8762V26.8956H43.4359V26.2931H43.0828V25.7917H43.5722C43.782 25.7917 43.9524 25.9564 43.9524 26.1591V26.8772C43.9537 27.0274 43.8867 27.1695 43.7701 27.2677Z" fill="#475569"/>
<path d="M50.6393 27.3968H49.29V24.6914H50.6283C50.6283 24.9675 50.3969 25.1907 50.1113 25.1907H49.8065V25.7932H50.255C50.3983 25.7932 50.5144 25.9054 50.5144 26.0437C50.5144 26.1819 50.3983 26.2942 50.255 26.2942H49.8065V26.8971H50.1219C50.4075 26.8975 50.6393 27.1207 50.6393 27.3968Z" fill="#475569"/>
<path d="M57.0573 27.3968L56.4926 25.9797V26.8992C56.4926 27.174 56.2622 27.3972 55.9775 27.3972V24.6918H56.5317L57.0982 26.1107V25.1877C57.0982 24.9137 57.3282 24.6914 57.6114 24.6914V27.3934L57.6133 27.3968H57.0573Z" fill="#475569"/>
<path d="M64.3762 24.82C64.4919 24.9186 64.5584 25.0611 64.5584 25.2105V26.8755C64.5584 27.0249 64.4919 27.1674 64.3757 27.266C64.2775 27.3492 64.1517 27.3948 64.0213 27.3948H62.9512V24.6895H64.0199C64.1508 24.6899 64.2775 24.7364 64.3762 24.82ZM64.0415 25.1891H63.4695V26.896H64.0415V25.1891Z" fill="#475569"/>
<path d="M71.2737 27.2675C71.1764 27.3507 71.0511 27.3968 70.9212 27.3968H70.4309C70.3014 27.3968 70.1761 27.3511 70.0787 27.2688C69.9631 27.1706 69.8965 27.0294 69.8965 26.8805V26.6786H70.4134V26.8975H70.9359V26.2946H70.4327C70.3023 26.2946 70.1761 26.2485 70.0783 26.1653C69.9631 26.0671 69.8969 25.9255 69.8969 25.777V25.2094C69.8969 25.0609 69.9631 24.9197 70.0783 24.8211C70.1761 24.7375 70.3023 24.6914 70.4327 24.6914H70.9216C71.0515 24.6914 71.1769 24.7375 71.2742 24.8207C71.3881 24.918 71.4528 25.058 71.4528 25.2052V25.3942H70.9363V25.1911H70.4139V25.7936H70.9202C71.0511 25.7936 71.1773 25.8401 71.2747 25.9242C71.3881 26.0219 71.4528 26.1614 71.4528 26.3082V26.8834C71.4528 27.0302 71.3876 27.1702 71.2737 27.2675Z" fill="#475569"/>
</svg>
