<svg width="100" height="28" viewBox="0 0 100 28" fill="none" xmlns="http://www.w3.org/2000/svg">
<path d="M37.0041 22.0793V25.9775C37.0041 26.871 36.214 27.6062 35.2452 27.6062C34.5736 27.6062 33.9707 27.2503 33.673 26.6888C33.5711 26.4991 33.6558 26.262 33.8682 26.1667C34.0721 26.0718 34.3269 26.1587 34.4208 26.3484C34.5822 26.6409 34.8966 26.8225 35.2452 26.8225C35.7548 26.8225 36.163 26.4432 36.163 25.9765V25.407C35.9082 25.5492 35.6105 25.6286 35.2876 25.6286C34.3526 25.6286 33.5882 24.9248 33.5797 24.0553C33.5797 24.0474 33.5797 24.0474 33.5797 24.0474V22.0783C33.5797 21.8646 33.7669 21.6909 33.9959 21.6909C34.2255 21.6909 34.4122 21.8651 34.4122 22.0783V24.0394C34.4122 24.4901 34.8118 24.854 35.2876 24.854C35.772 24.854 36.163 24.4901 36.163 24.0394V22.0783C36.163 21.8646 36.3502 21.6909 36.5793 21.6909C36.8175 21.6919 37.0041 21.8656 37.0041 22.0793ZM42.6209 23.645V25.2343C42.6209 25.4559 42.4337 25.6296 42.1961 25.6296C41.9665 25.6296 41.7798 25.4554 41.7798 25.2343V23.645C41.7798 22.9807 41.2021 22.4431 40.4881 22.4431C39.7742 22.4431 39.1965 22.9807 39.1965 23.645V25.2343C39.1965 25.4559 39.0098 25.6296 38.7716 25.6296C38.542 25.6296 38.3554 25.4554 38.3554 25.2343V23.645C38.3554 22.546 39.3155 21.6605 40.4881 21.6605C41.6608 21.66 42.6209 22.546 42.6209 23.645ZM43.9722 23.653C43.9722 22.5539 44.9238 21.6685 46.0964 21.6685C46.8613 21.6685 47.5667 22.0478 47.9491 22.6568C48.0682 22.8464 47.9915 23.0835 47.7963 23.1943C47.5924 23.2972 47.3376 23.2338 47.2185 23.0521C46.989 22.6802 46.5641 22.4511 46.0969 22.4511C45.3915 22.4511 44.8052 22.9887 44.8052 23.653C44.8052 24.3094 45.3915 24.855 46.0969 24.855C46.5389 24.855 46.9466 24.6493 47.1848 24.3014C47.3124 24.1197 47.5758 24.0723 47.7711 24.1826C47.9663 24.3014 48.0173 24.5465 47.8901 24.7282C47.4991 25.2977 46.828 25.6376 46.0969 25.6376C44.9238 25.6376 43.9722 24.7441 43.9722 23.653ZM53.1926 25.5662C53.1159 25.6216 53.0226 25.6531 52.9292 25.6531C52.8101 25.6531 52.6911 25.6057 52.6063 25.5108L50.7369 23.2258L50.2101 23.7399V25.2583C50.2101 25.4799 50.0235 25.6536 49.7853 25.6536C49.5557 25.6536 49.369 25.4794 49.369 25.2583V20.4745C49.369 20.2529 49.5557 20.0792 49.7853 20.0792C50.0235 20.0792 50.2101 20.2529 50.2101 20.4745V22.6173L52.5639 20.2769C52.6996 20.1027 52.9636 20.0712 53.1502 20.2055C53.3374 20.3323 53.3712 20.5774 53.2269 20.7511L51.3232 22.6568L53.2521 25.0132C53.405 25.1789 53.3793 25.424 53.1926 25.5662ZM54.7219 25.2423V20.0947C54.7219 19.8811 54.9091 19.7074 55.1468 19.7074C55.3764 19.7074 55.563 19.8816 55.563 20.0947V25.2423C55.563 25.4639 55.3764 25.6376 55.1468 25.6376C54.9091 25.6376 54.7219 25.4634 54.7219 25.2423ZM56.8976 23.645C56.8976 22.546 57.8578 21.6605 59.0304 21.6605C60.2116 21.6605 61.1632 22.546 61.1632 23.645C61.1632 24.7362 60.2116 25.6296 59.0304 25.6296C57.8578 25.6296 56.8976 24.7362 56.8976 23.645ZM57.7387 23.645C57.7387 24.3014 58.3164 24.847 59.0304 24.847C59.7444 24.847 60.3221 24.3014 60.3221 23.645C60.3221 22.9807 59.7444 22.4431 59.0304 22.4431C58.3164 22.4431 57.7387 22.9807 57.7387 23.645ZM65.9389 22.0558V24.0404V24.0484C65.9303 24.9258 65.1654 25.6376 64.2138 25.6376C63.2708 25.6376 62.5058 24.9258 62.4973 24.0484V24.0404V22.0558C62.4973 21.8422 62.6845 21.6685 62.9135 21.6685C63.1517 21.6685 63.3384 21.8422 63.3384 22.0558V24.0324C63.3384 24.4831 63.7294 24.855 64.2138 24.855C64.7068 24.855 65.0978 24.4831 65.0978 24.0324V22.0558C65.0978 21.8422 65.285 21.6685 65.5226 21.6685C65.7522 21.668 65.9389 21.8422 65.9389 22.0558ZM70.7066 22.0478V20.0787C70.7066 19.8651 70.8938 19.6914 71.1228 19.6914C71.361 19.6914 71.5477 19.8656 71.5477 20.0787V23.6211V23.6291C71.5477 24.7202 70.5875 25.6136 69.4149 25.6136C68.2337 25.6136 67.2821 24.7202 67.2821 23.6291C67.2821 22.53 68.2337 21.6445 69.4149 21.6445C69.8993 21.6445 70.3493 21.7948 70.7066 22.0478ZM70.7066 23.6291V23.6211C70.7066 22.9647 70.1288 22.4272 69.4149 22.4272C68.7009 22.4272 68.1232 22.9647 68.1232 23.6291C68.1232 24.2854 68.7009 24.831 69.4149 24.831C70.1288 24.831 70.7066 24.2934 70.7066 23.6291ZM31.8207 23.0191C31.5069 22.7431 31.1406 22.6198 30.7865 22.5C30.5521 22.4212 30.3499 22.3528 30.1777 22.2475C30.0366 22.1606 29.9342 22.0164 29.8886 21.8402C29.8682 21.7613 29.8607 21.6805 29.8661 21.5991C29.8709 21.5237 29.887 21.4489 29.9138 21.3765C30.0463 21.0171 30.4234 20.7835 30.8305 20.8065C31.1427 20.8244 31.419 20.9872 31.5702 21.2417C31.6453 21.368 31.7912 21.4434 31.9457 21.4344C31.957 21.4339 31.9677 21.4334 31.979 21.4329C32.1179 21.4279 32.244 21.357 32.3126 21.2447C32.3813 21.1324 32.3834 20.9951 32.318 20.8813C32.0326 20.3872 31.4828 20.0588 30.8831 20.0243C30.0238 19.9754 29.2599 20.5055 29.0679 21.2866C29.0464 21.373 29.033 21.4618 29.0271 21.5502C29.0201 21.657 29.0244 21.7653 29.04 21.8716C29.1038 22.3009 29.3495 22.6757 29.7153 22.9003C29.9701 23.0566 30.2523 23.1519 30.5012 23.2358C30.7871 23.3321 31.0574 23.4234 31.2441 23.5876C31.3503 23.681 31.4297 23.8053 31.4732 23.946C31.5214 24.1033 31.5204 24.2665 31.4694 24.4052C31.4576 24.4367 31.4442 24.4666 31.4286 24.4936C31.2489 24.806 30.9147 24.9877 30.5548 24.9663C30.2373 24.9478 29.9481 24.7716 29.8011 24.5056C29.7287 24.3748 29.5812 24.2954 29.4219 24.3034C29.4117 24.3039 29.4015 24.3044 29.3913 24.3044C29.254 24.3079 29.1285 24.3758 29.0577 24.4856C28.9869 24.5949 28.981 24.7302 29.0416 24.845C29.3184 25.3661 29.8784 25.712 30.5028 25.7479C30.5387 25.7499 30.5747 25.7509 30.6101 25.7509C30.9164 25.7509 31.2162 25.6755 31.4833 25.5303C31.7719 25.3736 32.0096 25.143 32.1705 24.8629C32.2375 24.7466 32.2864 24.6194 32.3159 24.4841C32.3572 24.2964 32.3598 24.0938 32.3228 23.8986C32.2579 23.5597 32.0798 23.2472 31.8207 23.0191Z" fill="#475569"/>
<path d="M54.0219 4.69857C53.7687 4.65964 53.5085 4.63867 53.2435 4.63867C52.9254 4.63867 52.6127 4.66762 52.3075 4.72402C51.3945 4.89273 50.5556 5.30801 49.8824 5.93393C49.5535 6.2399 49.5535 6.73653 49.8824 7.0425C50.2112 7.34847 50.7449 7.34847 51.0737 7.0425C51.6531 6.50344 52.4234 6.20645 53.243 6.20645C54.9343 6.20645 56.3108 7.48723 56.3108 9.061C56.3108 10.4157 55.2916 11.5517 53.9291 11.8427C53.9961 12.1032 53.7783 12.3683 53.7928 12.6333C53.8073 12.8983 54.0546 13.1639 54.0154 13.4249C56.27 13.0805 57.9962 11.2552 57.9962 9.061C57.9962 6.8693 56.2737 5.04497 54.0219 4.69857Z" fill="#475569"/>
<path d="M49.0041 10.7222C48.641 10.4517 48.1104 10.5061 47.8197 10.844C47.2334 11.5253 46.3601 11.9161 45.423 11.9161C43.7317 11.9161 42.3552 10.6353 42.3552 9.06157C42.3552 7.93153 43.0751 6.92228 44.2338 6.42863C44.3722 6.36973 44.5197 6.32431 44.6736 6.29137C44.6125 6.00986 44.8399 5.71936 44.8399 5.42288C44.8399 5.1778 44.6028 4.93722 44.6441 4.70312C44.2547 4.75503 43.8792 4.85536 43.5327 5.0031C42.6873 5.36298 41.9733 5.92501 41.4675 6.62829C40.9461 7.35253 40.6709 8.19407 40.6709 9.06157C40.6709 11.2533 42.3939 13.0776 44.6452 13.4245C44.8984 13.4634 45.1585 13.4839 45.4235 13.4839C45.7416 13.4839 46.0544 13.4549 46.3596 13.3985C47.4464 13.1974 48.4269 12.6478 49.1355 11.8238C49.4263 11.4864 49.3673 10.9927 49.0041 10.7222Z" fill="#475569"/>
<path d="M53.9288 11.8432C53.7019 10.9612 53.1827 10.1337 52.4183 9.54019C51.5069 8.83292 50.448 8.54292 49.424 8.26241C48.7261 8.07124 48.0674 7.89105 47.5036 7.58957C46.9812 7.31056 46.5874 6.81541 46.3949 6.23292C46.3101 5.97587 46.2645 5.70235 46.2645 5.42283C46.2645 5.16029 46.3037 4.90672 46.375 4.66514C46.7328 3.45774 47.9226 2.56828 49.3323 2.56828C50.6004 2.56828 51.6904 3.28853 52.157 4.31176C52.7112 4.18947 53.3039 4.15752 53.9117 4.23988C53.3543 2.37362 51.5128 1 49.3317 1C46.9742 1 45.0131 2.60522 44.6424 4.70258C44.6011 4.93717 44.5791 5.17726 44.5791 5.42233C44.5791 5.71882 44.6113 6.00931 44.6724 6.29082C44.9176 7.42186 45.6342 8.39817 46.6641 8.94872C47.4001 9.34203 48.187 9.55766 48.9482 9.7658C49.8467 10.0119 50.6958 10.2445 51.339 10.7431C51.7349 11.0506 52.0278 11.4649 52.2 11.9151C52.3952 12.4267 52.4338 12.9842 52.2869 13.4829C52.2541 13.5937 52.2134 13.7015 52.1624 13.8053C51.6319 14.8834 50.5478 15.5533 49.3328 15.5533C48.024 15.5533 46.9045 14.7861 46.4646 13.7105C45.9121 13.8312 45.3236 13.8637 44.725 13.7838C45.2459 15.6995 47.1142 17.1215 49.3328 17.1215C50.2651 17.1215 51.1695 16.865 51.9478 16.3803C52.7036 15.9096 53.3077 15.2448 53.6944 14.4582C53.8559 14.1297 53.9615 13.7813 54.0157 13.4245C54.094 12.9034 54.0629 12.3638 53.9288 11.8432Z" fill="#475569"/>
<path d="M44.235 6.42842C44.3734 6.36953 44.5209 6.32412 44.6748 6.29118C44.6137 6.0097 44.5815 5.71924 44.5815 5.42279C44.5815 5.17774 44.6035 4.93719 44.6448 4.70312C44.2553 4.75503 43.8799 4.85534 43.5333 5.00307C43.205 5.14281 42.8966 5.31349 42.6123 5.51113L43.6143 6.76979C43.8037 6.63853 44.0113 6.52375 44.235 6.42842Z" fill="#475569"/>
<path d="M53.9297 11.8436C54.0638 12.3641 54.0949 12.9036 54.016 13.4256C54.9156 13.2884 55.7304 12.9151 56.3854 12.3771L55.4536 11.0391C55.047 11.4318 54.5208 11.7173 53.9297 11.8436Z" fill="#475569"/>
</svg>
